M48
;Layer_Color=9474304
;FILE_FORMAT=2:4
INCH,LZ
;TYPE=PLATED
T1F00S00C0.0335
T2F00S00C0.0354
T3F00S00C0.0394
T4F00S00C0.0400
T5F00S00C0.0984
%
T01
X0467Y0418
X0497
T02
X0466Y0327
Y0337
Y0347
Y0357
Y0367
Y0377
Y0387
X0476
Y0377
Y0367
Y0357
Y0347
Y0337
Y0327
T03
X0497Y0211
Y0221
Y0231
Y0241
Y026
Y027
Y028
Y029
X0526
Y028
X0528Y0241
Y0231
X0449
Y0241
X0419
Y0231
Y0221
Y0211
Y026
Y027
Y028
Y029
X0449
Y028
X0429Y0327
Y0337
Y0347
Y0367
Y0377
Y0387
X0438Y0418
X0448
X0515Y0387
Y0377
Y0367
Y0344
Y0334
Y0324
T04
X0509Y0418
X0519
T05
X0545Y0203
X04
Y0427
X0545
M30
