G04 Layer_Color=16711935*
%FSLAX24Y24*%
%MOIN*%
G70*
G01*
G75*
%ADD19C,0.0100*%
D19*
X52300Y27200D02*
X52100D01*
X52000Y27100D01*
Y26700D01*
X52100Y26600D01*
X52300D01*
X52400Y26700D01*
Y27100D01*
X52300Y27200D01*
X52600D02*
Y26700D01*
X52700Y26600D01*
X52900D01*
X53000Y26700D01*
Y27200D01*
X53200D02*
X53599D01*
X53400D01*
Y26600D01*
X52300Y22300D02*
X52100D01*
X52000Y22200D01*
Y21800D01*
X52100Y21700D01*
X52300D01*
X52400Y21800D01*
Y22200D01*
X52300Y22300D01*
X52600D02*
Y21800D01*
X52700Y21700D01*
X52900D01*
X53000Y21800D01*
Y22300D01*
X53200D02*
X53599D01*
X53400D01*
Y21700D01*
X44500Y22400D02*
X44300D01*
X44200Y22300D01*
Y21900D01*
X44300Y21800D01*
X44500D01*
X44600Y21900D01*
Y22300D01*
X44500Y22400D01*
X44800D02*
Y21900D01*
X44900Y21800D01*
X45100D01*
X45200Y21900D01*
Y22400D01*
X45400D02*
X45799D01*
X45600D01*
Y21800D01*
X44400Y27500D02*
X44200D01*
X44100Y27400D01*
Y27000D01*
X44200Y26900D01*
X44400D01*
X44500Y27000D01*
Y27400D01*
X44400Y27500D01*
X44700D02*
Y27000D01*
X44800Y26900D01*
X45000D01*
X45100Y27000D01*
Y27500D01*
X45300D02*
X45699D01*
X45500D01*
Y26900D01*
X51920Y25440D02*
X51520D01*
Y24840D01*
X51920D01*
X51520Y25140D02*
X51720D01*
X52120Y24840D02*
Y25440D01*
X52520Y24840D01*
Y25440D01*
X53119Y25340D02*
X53020Y25440D01*
X52820D01*
X52720Y25340D01*
Y24940D01*
X52820Y24840D01*
X53020D01*
X53119Y24940D01*
X53619Y25440D02*
X53419D01*
X53319Y25340D01*
Y24940D01*
X53419Y24840D01*
X53619D01*
X53719Y24940D01*
Y25340D01*
X53619Y25440D01*
X54219Y24840D02*
Y25440D01*
X53919Y25140D01*
X54319D01*
X51820Y30440D02*
X51420D01*
Y29840D01*
X51820D01*
X51420Y30140D02*
X51620D01*
X52020Y29840D02*
Y30440D01*
X52420Y29840D01*
Y30440D01*
X53019Y30340D02*
X52920Y30440D01*
X52720D01*
X52620Y30340D01*
Y29940D01*
X52720Y29840D01*
X52920D01*
X53019Y29940D01*
X53519Y30440D02*
X53319D01*
X53219Y30340D01*
Y29940D01*
X53319Y29840D01*
X53519D01*
X53619Y29940D01*
Y30340D01*
X53519Y30440D01*
X53819Y30340D02*
X53919Y30440D01*
X54119D01*
X54219Y30340D01*
Y30240D01*
X54119Y30140D01*
X54019D01*
X54119D01*
X54219Y30040D01*
Y29940D01*
X54119Y29840D01*
X53919D01*
X53819Y29940D01*
X44000Y25500D02*
X43600D01*
Y24900D01*
X44000D01*
X43600Y25200D02*
X43800D01*
X44200Y24900D02*
Y25500D01*
X44600Y24900D01*
Y25500D01*
X45199Y25400D02*
X45100Y25500D01*
X44900D01*
X44800Y25400D01*
Y25000D01*
X44900Y24900D01*
X45100D01*
X45199Y25000D01*
X45699Y25500D02*
X45499D01*
X45399Y25400D01*
Y25000D01*
X45499Y24900D01*
X45699D01*
X45799Y25000D01*
Y25400D01*
X45699Y25500D01*
X46399Y24900D02*
X45999D01*
X46399Y25300D01*
Y25400D01*
X46299Y25500D01*
X46099D01*
X45999Y25400D01*
X44000Y30700D02*
X43600D01*
Y30100D01*
X44000D01*
X43600Y30400D02*
X43800D01*
X44200Y30100D02*
Y30700D01*
X44600Y30100D01*
Y30700D01*
X45199Y30600D02*
X45100Y30700D01*
X44900D01*
X44800Y30600D01*
Y30200D01*
X44900Y30100D01*
X45100D01*
X45199Y30200D01*
X45699Y30700D02*
X45499D01*
X45399Y30600D01*
Y30200D01*
X45499Y30100D01*
X45699D01*
X45799Y30200D01*
Y30600D01*
X45699Y30700D01*
X45999Y30100D02*
X46199D01*
X46099D01*
Y30700D01*
X45999Y30600D01*
X47500Y26500D02*
Y26100D01*
X48100D01*
Y26500D01*
X47800Y26100D02*
Y26300D01*
X48100Y26700D02*
X47500D01*
X48100Y27100D01*
X47500D01*
X47600Y27699D02*
X47500Y27600D01*
Y27400D01*
X47600Y27300D01*
X48000D01*
X48100Y27400D01*
Y27600D01*
X48000Y27699D01*
X47500Y28199D02*
Y27999D01*
X47600Y27899D01*
X48000D01*
X48100Y27999D01*
Y28199D01*
X48000Y28299D01*
X47600D01*
X47500Y28199D01*
X47600Y28499D02*
X47500Y28599D01*
Y28799D01*
X47600Y28899D01*
X47700D01*
X47800Y28799D01*
Y28699D01*
Y28799D01*
X47900Y28899D01*
X48000D01*
X48100Y28799D01*
Y28599D01*
X48000Y28499D01*
X47500Y21500D02*
Y21100D01*
X48100D01*
Y21500D01*
X47800Y21100D02*
Y21300D01*
X48100Y21700D02*
X47500D01*
X48100Y22100D01*
X47500D01*
X47600Y22699D02*
X47500Y22600D01*
Y22400D01*
X47600Y22300D01*
X48000D01*
X48100Y22400D01*
Y22600D01*
X48000Y22699D01*
X47500Y23199D02*
Y22999D01*
X47600Y22899D01*
X48000D01*
X48100Y22999D01*
Y23199D01*
X48000Y23299D01*
X47600D01*
X47500Y23199D01*
X48100Y23799D02*
X47500D01*
X47800Y23499D01*
Y23899D01*
X39800Y21600D02*
Y21200D01*
X40400D01*
Y21600D01*
X40100Y21200D02*
Y21400D01*
X40400Y21800D02*
X39800D01*
X40400Y22200D01*
X39800D01*
X39900Y22799D02*
X39800Y22700D01*
Y22500D01*
X39900Y22400D01*
X40300D01*
X40400Y22500D01*
Y22700D01*
X40300Y22799D01*
X39800Y23299D02*
Y23099D01*
X39900Y22999D01*
X40300D01*
X40400Y23099D01*
Y23299D01*
X40300Y23399D01*
X39900D01*
X39800Y23299D01*
X40400Y23999D02*
Y23599D01*
X40000Y23999D01*
X39900D01*
X39800Y23899D01*
Y23699D01*
X39900Y23599D01*
X39800Y27100D02*
Y26700D01*
X40400D01*
Y27100D01*
X40100Y26700D02*
Y26900D01*
X40400Y27300D02*
X39800D01*
X40400Y27700D01*
X39800D01*
X39900Y28299D02*
X39800Y28200D01*
Y28000D01*
X39900Y27900D01*
X40300D01*
X40400Y28000D01*
Y28200D01*
X40300Y28299D01*
X39800Y28799D02*
Y28599D01*
X39900Y28499D01*
X40300D01*
X40400Y28599D01*
Y28799D01*
X40300Y28899D01*
X39900D01*
X39800Y28799D01*
X40400Y29099D02*
Y29299D01*
Y29199D01*
X39800D01*
X39900Y29099D01*
X42400Y42200D02*
X42000D01*
Y41900D01*
X42200Y42000D01*
X42300D01*
X42400Y41900D01*
Y41700D01*
X42300Y41600D01*
X42100D01*
X42000Y41700D01*
X42600Y42200D02*
Y41800D01*
X42800Y41600D01*
X43000Y41800D01*
Y42200D01*
X53900Y34400D02*
X54000Y34500D01*
Y34700D01*
X53900Y34800D01*
X53500D01*
X53400Y34700D01*
Y34500D01*
X53500Y34400D01*
X53900Y34100D02*
X53800D01*
Y34200D01*
Y34000D01*
Y34100D01*
X53500D01*
X53400Y34000D01*
X53800Y33700D02*
X53400D01*
X53600D01*
X53700Y33600D01*
X53800Y33500D01*
Y33400D01*
X53400Y33101D02*
Y32901D01*
Y33001D01*
X54000D01*
Y33101D01*
X53400Y32001D02*
X54000D01*
X53800Y31801D01*
X54000Y31601D01*
X53400D01*
Y31401D02*
Y31201D01*
Y31301D01*
X54000D01*
X53900Y31401D01*
X54000Y39300D02*
X54100Y39400D01*
Y39600D01*
X54000Y39700D01*
X53600D01*
X53500Y39600D01*
Y39400D01*
X53600Y39300D01*
X54000Y39000D02*
X53900D01*
Y39100D01*
Y38900D01*
Y39000D01*
X53600D01*
X53500Y38900D01*
X53900Y38600D02*
X53500D01*
X53700D01*
X53800Y38500D01*
X53900Y38400D01*
Y38300D01*
X53500Y38001D02*
Y37801D01*
Y37901D01*
X54100D01*
Y38001D01*
X53500Y36901D02*
X54100D01*
X53900Y36701D01*
X54100Y36501D01*
X53500D01*
X54000Y36301D02*
X54100Y36201D01*
Y36001D01*
X54000Y35901D01*
X53900D01*
X53800Y36001D01*
Y36101D01*
Y36001D01*
X53700Y35901D01*
X53600D01*
X53500Y36001D01*
Y36201D01*
X53600Y36301D01*
X40600Y32000D02*
X40500Y31900D01*
Y31700D01*
X40600Y31600D01*
X41000D01*
X41100Y31700D01*
Y31900D01*
X41000Y32000D01*
X40600Y32300D02*
X40700D01*
Y32200D01*
Y32400D01*
Y32300D01*
X41000D01*
X41100Y32400D01*
X40700Y32700D02*
X41100D01*
X40900D01*
X40800Y32800D01*
X40700Y32900D01*
Y33000D01*
X41100Y33299D02*
Y33499D01*
Y33399D01*
X40500D01*
Y33299D01*
X41100Y34399D02*
X40500D01*
X40700Y34599D01*
X40500Y34799D01*
X41100D01*
Y35399D02*
Y34999D01*
X40700Y35399D01*
X40600D01*
X40500Y35299D01*
Y35099D01*
X40600Y34999D01*
X40500Y36800D02*
X40400Y36700D01*
Y36500D01*
X40500Y36400D01*
X40900D01*
X41000Y36500D01*
Y36700D01*
X40900Y36800D01*
X40500Y37100D02*
X40600D01*
Y37000D01*
Y37200D01*
Y37100D01*
X40900D01*
X41000Y37200D01*
X40600Y37500D02*
X41000D01*
X40800D01*
X40700Y37600D01*
X40600Y37700D01*
Y37800D01*
X41000Y38099D02*
Y38299D01*
Y38199D01*
X40400D01*
Y38099D01*
X41000Y39199D02*
X40400D01*
X40600Y39399D01*
X40400Y39599D01*
X41000D01*
Y40099D02*
X40400D01*
X40700Y39799D01*
Y40199D01*
X41000Y42500D02*
Y42900D01*
X41200Y43100D01*
X41400Y42900D01*
Y42500D01*
Y42800D01*
X41000D01*
X41600Y42500D02*
X41800D01*
X41700D01*
Y43100D01*
X41600D01*
X42100Y42500D02*
X42300D01*
X42200D01*
Y42900D01*
X42100D01*
X42599Y42500D02*
Y42900D01*
X42699D01*
X42799Y42800D01*
Y42500D01*
Y42800D01*
X42899Y42900D01*
X42999Y42800D01*
Y42500D01*
M02*
