G04 Layer_Physical_Order=2*
G04 Layer_Color=16711680*
%FSLAX24Y24*%
%MOIN*%
G70*
G01*
G75*
%ADD10C,0.1969*%
%ADD11C,0.0630*%
%ADD12R,0.0709X0.0709*%
%ADD13C,0.0709*%
%ADD14C,0.1378*%
%ADD15R,0.0709X0.0709*%
%ADD16R,0.0750X0.0750*%
%ADD17C,0.0750*%
%ADD18R,0.0750X0.0750*%
%ADD19C,0.0700*%
%ADD20R,0.0700X0.0700*%
%ADD21C,0.0300*%
%ADD22C,0.0200*%
G36*
X47903Y29793D02*
X48369Y29328D01*
Y18153D01*
X46919Y16703D01*
X46769Y16552D01*
X41932D01*
X41316Y17168D01*
Y21256D01*
X41306Y21332D01*
X41277Y21403D01*
X41230Y21463D01*
X38314Y24380D01*
X38253Y24427D01*
X38182Y24456D01*
X38107Y24466D01*
X37686D01*
X37640Y24526D01*
X37537Y24605D01*
X37437Y24646D01*
Y24700D01*
X37537Y24741D01*
X37640Y24821D01*
X37719Y24924D01*
X37769Y25044D01*
X37786Y25173D01*
X37769Y25302D01*
X37719Y25423D01*
X37640Y25526D01*
X37537Y25605D01*
X37437Y25646D01*
Y25700D01*
X37537Y25741D01*
X37640Y25821D01*
X37719Y25924D01*
X37769Y26044D01*
X37786Y26173D01*
X37769Y26302D01*
X37719Y26423D01*
X37640Y26526D01*
X37537Y26605D01*
X37437Y26646D01*
Y26700D01*
X37537Y26741D01*
X37640Y26821D01*
X37719Y26924D01*
X37769Y27044D01*
X37786Y27173D01*
X37769Y27302D01*
X37719Y27423D01*
X37640Y27526D01*
X37537Y27605D01*
X37437Y27646D01*
Y27700D01*
X37537Y27741D01*
X37640Y27821D01*
X37719Y27924D01*
X37769Y28044D01*
X37786Y28173D01*
X37769Y28302D01*
X37719Y28423D01*
X37640Y28526D01*
X37537Y28605D01*
X37416Y28655D01*
X37287Y28672D01*
X37158Y28655D01*
X37038Y28605D01*
X36935Y28526D01*
X36856Y28423D01*
X36806Y28302D01*
X36789Y28173D01*
X36806Y28044D01*
X36856Y27924D01*
X36935Y27821D01*
X37038Y27741D01*
X37137Y27700D01*
Y27646D01*
X37038Y27605D01*
X36935Y27526D01*
X36856Y27423D01*
X36806Y27302D01*
X36789Y27173D01*
X36806Y27044D01*
X36856Y26924D01*
X36935Y26821D01*
X37038Y26741D01*
X37137Y26700D01*
Y26646D01*
X37038Y26605D01*
X36935Y26526D01*
X36856Y26423D01*
X36806Y26302D01*
X36789Y26173D01*
X36806Y26044D01*
X36856Y25924D01*
X36935Y25821D01*
X37038Y25741D01*
X37137Y25700D01*
Y25646D01*
X37038Y25605D01*
X36935Y25526D01*
X36856Y25423D01*
X36806Y25302D01*
X36789Y25173D01*
X36806Y25044D01*
X36856Y24924D01*
X36935Y24821D01*
X37038Y24741D01*
X37137Y24700D01*
Y24646D01*
X37038Y24605D01*
X36935Y24526D01*
X36856Y24423D01*
X36806Y24302D01*
X36789Y24173D01*
X36806Y24044D01*
X36856Y23924D01*
X36935Y23821D01*
X37038Y23741D01*
X37137Y23700D01*
Y23646D01*
X37038Y23605D01*
X36935Y23526D01*
X36856Y23423D01*
X36806Y23302D01*
X36789Y23173D01*
X36806Y23044D01*
X36856Y22924D01*
X36935Y22821D01*
X37038Y22741D01*
X37137Y22700D01*
Y22646D01*
X37038Y22605D01*
X36935Y22526D01*
X36856Y22423D01*
X36806Y22302D01*
X36789Y22173D01*
X36806Y22044D01*
X36856Y21924D01*
X36935Y21821D01*
X37038Y21741D01*
X37137Y21700D01*
Y21646D01*
X37038Y21605D01*
X36935Y21526D01*
X36856Y21423D01*
X36806Y21302D01*
X36789Y21173D01*
X36806Y21044D01*
X36856Y20924D01*
X36935Y20821D01*
X37038Y20741D01*
X37137Y20700D01*
Y20646D01*
X37038Y20605D01*
X36935Y20526D01*
X36856Y20423D01*
X36806Y20302D01*
X36789Y20173D01*
X36806Y20044D01*
X36856Y19924D01*
X36935Y19821D01*
X37038Y19741D01*
X37158Y19692D01*
X37287Y19675D01*
X37416Y19692D01*
X37537Y19741D01*
X37640Y19821D01*
X37719Y19924D01*
X37769Y20044D01*
X37786Y20173D01*
X37769Y20302D01*
X37719Y20423D01*
X37640Y20526D01*
X37537Y20605D01*
X37437Y20646D01*
Y20700D01*
X37537Y20741D01*
X37640Y20821D01*
X37719Y20924D01*
X37769Y21044D01*
X37786Y21173D01*
X37769Y21302D01*
X37719Y21423D01*
X37640Y21526D01*
X37537Y21605D01*
X37437Y21646D01*
Y21700D01*
X37537Y21741D01*
X37640Y21821D01*
X37719Y21924D01*
X37769Y22044D01*
X37786Y22173D01*
X37769Y22302D01*
X37719Y22423D01*
X37640Y22526D01*
X37537Y22605D01*
X37437Y22646D01*
Y22700D01*
X37537Y22741D01*
X37640Y22821D01*
X37719Y22924D01*
X37769Y23044D01*
X37786Y23173D01*
X37769Y23302D01*
X37719Y23423D01*
X37640Y23526D01*
X37537Y23605D01*
X37437Y23646D01*
Y23700D01*
X37537Y23741D01*
X37640Y23821D01*
X37686Y23881D01*
X37986D01*
X40731Y21135D01*
Y17047D01*
X40741Y16972D01*
X40770Y16901D01*
X40817Y16840D01*
X41059Y16599D01*
X41040Y16552D01*
X33586D01*
X32798Y17340D01*
Y17956D01*
X31768D01*
Y17737D01*
X31718Y17720D01*
X31651Y17808D01*
X31543Y17891D01*
X31418Y17943D01*
X31283Y17960D01*
X31149Y17943D01*
X31134Y17936D01*
X30713Y18357D01*
X30713Y18357D01*
X30323Y18747D01*
Y21395D01*
X30613Y21684D01*
X30866D01*
X30867Y21680D01*
X30947Y21577D01*
X31050Y21497D01*
X31070Y21489D01*
X31060Y21439D01*
X30805D01*
Y20451D01*
X31447D01*
X31898Y20000D01*
X31977Y19947D01*
X32071Y19929D01*
X33854D01*
X33856Y19924D01*
X33935Y19821D01*
X34038Y19741D01*
X34158Y19692D01*
X34287Y19675D01*
X34416Y19692D01*
X34537Y19741D01*
X34640Y19821D01*
X34719Y19924D01*
X34769Y20044D01*
X34786Y20173D01*
X34769Y20302D01*
X34719Y20423D01*
X34640Y20526D01*
X34537Y20605D01*
X34437Y20646D01*
Y20700D01*
X34537Y20741D01*
X34640Y20821D01*
X34719Y20924D01*
X34769Y21044D01*
X34786Y21173D01*
X34769Y21302D01*
X34719Y21423D01*
X34640Y21526D01*
X34537Y21605D01*
X34437Y21646D01*
Y21700D01*
X34537Y21741D01*
X34640Y21821D01*
X34719Y21924D01*
X34769Y22044D01*
X34786Y22173D01*
X34769Y22302D01*
X34719Y22423D01*
X34640Y22526D01*
X34537Y22605D01*
X34437Y22646D01*
Y22700D01*
X34537Y22741D01*
X34640Y22821D01*
X34719Y22924D01*
X34769Y23044D01*
X34786Y23173D01*
X34769Y23302D01*
X34719Y23423D01*
X34640Y23526D01*
X34537Y23605D01*
X34416Y23655D01*
X34315Y23668D01*
Y23671D01*
X34293D01*
X34287Y23672D01*
X34282Y23671D01*
X34260D01*
Y23668D01*
X34158Y23655D01*
X34038Y23605D01*
X33935Y23526D01*
X33856Y23423D01*
X33854Y23418D01*
X32991D01*
X32489Y23920D01*
Y24961D01*
X32470Y25054D01*
X32417Y25134D01*
X31893Y25658D01*
Y26342D01*
X31579D01*
X31569Y26392D01*
X31618Y26412D01*
X31717Y26488D01*
X31793Y26587D01*
X31841Y26703D01*
X31857Y26827D01*
X31841Y26951D01*
X31793Y27066D01*
X31717Y27166D01*
X31670Y27201D01*
Y28357D01*
X33810Y30496D01*
X35034D01*
Y29870D01*
X35044Y29794D01*
X35073Y29724D01*
X35120Y29663D01*
X35767Y29016D01*
X35462Y28711D01*
X35416Y28650D01*
X35387Y28580D01*
X35377Y28504D01*
Y24767D01*
X35076Y24466D01*
X34636D01*
X34611Y24497D01*
X34517Y24570D01*
X34406Y24616D01*
X34337Y24625D01*
Y24173D01*
Y23722D01*
X34406Y23731D01*
X34517Y23776D01*
X34611Y23849D01*
X34636Y23881D01*
X35197D01*
X35273Y23891D01*
X35343Y23920D01*
X35404Y23966D01*
X35876Y24439D01*
X35923Y24499D01*
X35952Y24570D01*
X35962Y24646D01*
Y28383D01*
X36302Y28723D01*
X38068D01*
X38691Y28100D01*
X38751Y28054D01*
X38822Y28025D01*
X38898Y28015D01*
X42241D01*
X42845Y27410D01*
Y27187D01*
X42683D01*
Y26804D01*
X42677Y26757D01*
X42633Y26755D01*
X42633Y26759D01*
X42619Y26861D01*
X42570Y26982D01*
X42490Y27085D01*
X42387Y27164D01*
X42267Y27214D01*
X42138Y27231D01*
X42009Y27214D01*
X41888Y27164D01*
X41785Y27085D01*
X41706Y26982D01*
X41704Y26977D01*
X39937D01*
X39920Y27017D01*
X39841Y27120D01*
X39737Y27200D01*
X39617Y27249D01*
X39488Y27266D01*
X39359Y27249D01*
X39239Y27200D01*
X39136Y27120D01*
X39056Y27017D01*
X39007Y26897D01*
X38990Y26768D01*
X39007Y26639D01*
X39056Y26518D01*
X39136Y26415D01*
X39239Y26336D01*
X39359Y26286D01*
X39488Y26269D01*
X39617Y26286D01*
X39737Y26336D01*
X39841Y26415D01*
X39896Y26488D01*
X41704D01*
X41706Y26483D01*
X41785Y26380D01*
X41888Y26300D01*
X42009Y26251D01*
X42138Y26234D01*
X42267Y26251D01*
X42387Y26300D01*
X42490Y26380D01*
X42570Y26483D01*
X42619Y26603D01*
X42633Y26706D01*
X42633Y26710D01*
X42677Y26707D01*
X42683Y26660D01*
Y26278D01*
X43592D01*
Y26773D01*
X45290Y28471D01*
X46240D01*
X46275Y28425D01*
X46322Y28389D01*
Y27976D01*
X46332Y27900D01*
X46361Y27830D01*
X46407Y27769D01*
X47582Y26595D01*
Y25869D01*
X47107Y25395D01*
X47044D01*
X47035Y25416D01*
X46989Y25477D01*
X46928Y25523D01*
X46894Y25537D01*
X46904Y25587D01*
X47129D01*
Y26617D01*
X46099D01*
Y26347D01*
X45882D01*
X45789Y26328D01*
X45709Y26275D01*
X44659Y25225D01*
X40527D01*
X40434Y25206D01*
X40354Y25153D01*
X39779Y24578D01*
X39775Y24580D01*
X39646Y24597D01*
X39517Y24580D01*
X39396Y24530D01*
X39293Y24451D01*
X39214Y24348D01*
X39164Y24227D01*
X39147Y24098D01*
X39164Y23969D01*
X39214Y23849D01*
X39293Y23746D01*
X39396Y23667D01*
X39517Y23617D01*
X39646Y23600D01*
X39775Y23617D01*
X39895Y23667D01*
X39998Y23746D01*
X40077Y23849D01*
X40127Y23969D01*
X40144Y24098D01*
X40127Y24227D01*
X40125Y24232D01*
X40629Y24735D01*
X44760D01*
X44854Y24754D01*
X44933Y24807D01*
X45984Y25858D01*
X46099D01*
Y25587D01*
X46413D01*
X46423Y25537D01*
X46375Y25517D01*
X46275Y25441D01*
X46199Y25342D01*
X46151Y25226D01*
X46135Y25102D01*
X46151Y24978D01*
X46199Y24863D01*
X46275Y24764D01*
X46375Y24687D01*
X46464Y24650D01*
X46462Y24597D01*
X46354Y24552D01*
X46247Y24470D01*
X46164Y24362D01*
X46158Y24347D01*
X44784D01*
X44764Y24343D01*
X43386D01*
X43385Y24348D01*
X43305Y24451D01*
X43202Y24530D01*
X43082Y24580D01*
X42953Y24597D01*
X42824Y24580D01*
X42703Y24530D01*
X42600Y24451D01*
X42521Y24348D01*
X42471Y24227D01*
X42454Y24098D01*
X42471Y23969D01*
X42521Y23849D01*
X42600Y23746D01*
X42703Y23667D01*
X42824Y23617D01*
X42953Y23600D01*
X43082Y23617D01*
X43202Y23667D01*
X43305Y23746D01*
X43385Y23849D01*
X43386Y23854D01*
X44780D01*
X44800Y23858D01*
X46158D01*
X46164Y23843D01*
X46247Y23735D01*
X46354Y23653D01*
X46462Y23608D01*
X46464Y23554D01*
X46375Y23517D01*
X46275Y23441D01*
X46199Y23342D01*
X46151Y23226D01*
X46135Y23102D01*
X46151Y22978D01*
X46199Y22863D01*
X46275Y22764D01*
X46375Y22687D01*
X46490Y22640D01*
X46614Y22623D01*
X46672Y22631D01*
X47542Y21761D01*
Y18516D01*
X47175Y18149D01*
X47129Y18168D01*
Y19098D01*
X46099D01*
Y18827D01*
X43352D01*
X43302Y18893D01*
X43200Y18971D01*
X43089Y19017D01*
X43084Y19043D01*
X43089Y19069D01*
X43200Y19115D01*
X43302Y19194D01*
X43381Y19296D01*
X43430Y19415D01*
X43447Y19543D01*
X43430Y19671D01*
X43381Y19790D01*
X43302Y19893D01*
X43200Y19971D01*
X43197Y19972D01*
Y20665D01*
X43202Y20667D01*
X43305Y20746D01*
X43385Y20849D01*
X43434Y20969D01*
X43451Y21098D01*
X43434Y21227D01*
X43385Y21348D01*
X43305Y21451D01*
X43202Y21530D01*
X43082Y21580D01*
X42953Y21597D01*
X42824Y21580D01*
X42703Y21530D01*
X42600Y21451D01*
X42521Y21348D01*
X42471Y21227D01*
X42454Y21098D01*
X42471Y20969D01*
X42521Y20849D01*
X42600Y20746D01*
X42703Y20667D01*
X42708Y20665D01*
Y19972D01*
X42706Y19971D01*
X42603Y19893D01*
X42525Y19790D01*
X42475Y19671D01*
X42459Y19543D01*
X42475Y19415D01*
X42525Y19296D01*
X42603Y19194D01*
X42706Y19115D01*
X42817Y19069D01*
X42821Y19043D01*
X42817Y19017D01*
X42706Y18971D01*
X42603Y18893D01*
X42525Y18790D01*
X42475Y18671D01*
X42459Y18543D01*
X42475Y18415D01*
X42525Y18296D01*
X42603Y18194D01*
X42706Y18115D01*
X42783Y18083D01*
X42773Y18033D01*
X42463D01*
Y17053D01*
X43443D01*
Y18033D01*
X43133D01*
X43123Y18083D01*
X43200Y18115D01*
X43302Y18194D01*
X43381Y18296D01*
X43398Y18338D01*
X46099D01*
Y18068D01*
X46413D01*
X46423Y18018D01*
X46375Y17998D01*
X46275Y17921D01*
X46199Y17822D01*
X46151Y17707D01*
X46135Y17583D01*
X46151Y17459D01*
X46199Y17343D01*
X46275Y17244D01*
X46375Y17168D01*
X46490Y17120D01*
X46614Y17104D01*
X46738Y17120D01*
X46854Y17168D01*
X46953Y17244D01*
X46988Y17290D01*
X47023D01*
X47098Y17300D01*
X47169Y17329D01*
X47230Y17376D01*
X48041Y18188D01*
X48088Y18248D01*
X48117Y18319D01*
X48127Y18395D01*
Y21882D01*
X48117Y21958D01*
X48088Y22028D01*
X48041Y22089D01*
X47369Y22761D01*
X47387Y22814D01*
X47430Y22820D01*
X47501Y22849D01*
X47561Y22896D01*
X48120Y23455D01*
X48167Y23515D01*
X48196Y23586D01*
X48206Y23661D01*
Y24417D01*
X48196Y24493D01*
X48167Y24564D01*
X48120Y24624D01*
X47642Y25102D01*
X48081Y25541D01*
X48127Y25602D01*
X48157Y25672D01*
X48167Y25748D01*
Y26716D01*
X48157Y26792D01*
X48127Y26862D01*
X48081Y26923D01*
X46907Y28097D01*
Y28389D01*
X46953Y28425D01*
X47029Y28524D01*
X47077Y28640D01*
X47093Y28764D01*
X47077Y28888D01*
X47029Y29003D01*
X46953Y29103D01*
X46854Y29179D01*
X46805Y29199D01*
X46815Y29249D01*
X47129D01*
Y30279D01*
X46099D01*
Y30056D01*
X44203D01*
X44195Y30083D01*
X44118Y30227D01*
X44014Y30353D01*
X43888Y30456D01*
X43744Y30533D01*
X43631Y30568D01*
X43639Y30617D01*
X47079D01*
X47903Y29793D01*
D02*
G37*
G36*
X35119Y31203D02*
X35106Y31187D01*
X35100Y31186D01*
X35021Y31133D01*
X34986Y31082D01*
X33689D01*
X33613Y31072D01*
X33543Y31042D01*
X33482Y30996D01*
X31171Y28685D01*
X31125Y28624D01*
X31095Y28554D01*
X31085Y28478D01*
Y27201D01*
X31039Y27166D01*
X31004Y27119D01*
X30488D01*
X30412Y27109D01*
X30342Y27080D01*
X30281Y27034D01*
X29911Y26664D01*
X29865Y26603D01*
X29836Y26532D01*
X29826Y26457D01*
Y24094D01*
X29836Y24019D01*
X29865Y23948D01*
X29911Y23888D01*
X30846Y22953D01*
X30841Y22913D01*
X30857Y22795D01*
X30902Y22684D01*
X30975Y22589D01*
X31070Y22517D01*
X31181Y22471D01*
X31212Y22467D01*
Y22416D01*
X31170Y22411D01*
X31050Y22361D01*
X30947Y22282D01*
X30867Y22178D01*
X30866Y22174D01*
X30512D01*
X30418Y22155D01*
X30339Y22102D01*
X29906Y21669D01*
X29853Y21590D01*
X29834Y21496D01*
Y18646D01*
X29853Y18552D01*
X29906Y18473D01*
X30367Y18011D01*
X30367Y18011D01*
X30788Y17590D01*
X30782Y17575D01*
X30764Y17441D01*
X30782Y17306D01*
X30834Y17181D01*
X30916Y17074D01*
X31024Y16991D01*
X31149Y16939D01*
X31283Y16921D01*
X31418Y16939D01*
X31543Y16991D01*
X31651Y17074D01*
X31718Y17162D01*
X31768Y17145D01*
Y16926D01*
X32385D01*
X33218Y16092D01*
X33241Y16075D01*
X33258Y16053D01*
X33273Y16041D01*
X33256Y15991D01*
X29771D01*
Y29681D01*
X29820Y29690D01*
X29822Y29685D01*
X29914Y29534D01*
X30029Y29399D01*
X30164Y29285D01*
X30315Y29192D01*
X30478Y29124D01*
X30650Y29083D01*
X30827Y29069D01*
X31003Y29083D01*
X31175Y29124D01*
X31339Y29192D01*
X31490Y29285D01*
X31624Y29399D01*
X31739Y29534D01*
X31832Y29685D01*
X31899Y29848D01*
X31941Y30020D01*
X31955Y30197D01*
X31941Y30373D01*
X31899Y30545D01*
X31832Y30709D01*
X31739Y30860D01*
X31624Y30994D01*
X31490Y31109D01*
X31339Y31202D01*
X31333Y31204D01*
X31343Y31253D01*
X35097D01*
X35119Y31203D01*
D02*
G37*
G36*
X31039Y26488D02*
X31138Y26412D01*
X31187Y26392D01*
X31177Y26342D01*
X30863D01*
Y25312D01*
X31547D01*
X31999Y24859D01*
Y23819D01*
X32018Y23725D01*
X32071Y23646D01*
X32717Y23000D01*
X32796Y22947D01*
X32890Y22929D01*
X33854D01*
X33856Y22924D01*
X33935Y22821D01*
X34038Y22741D01*
X34137Y22700D01*
Y22646D01*
X34038Y22605D01*
X33935Y22526D01*
X33856Y22423D01*
X33806Y22302D01*
X33789Y22173D01*
X33806Y22044D01*
X33856Y21924D01*
X33935Y21821D01*
X34038Y21741D01*
X34137Y21700D01*
Y21646D01*
X34038Y21605D01*
X33935Y21526D01*
X33856Y21423D01*
X33806Y21302D01*
X33789Y21173D01*
X33806Y21044D01*
X33856Y20924D01*
X33935Y20821D01*
X34038Y20741D01*
X34137Y20700D01*
Y20646D01*
X34038Y20605D01*
X33935Y20526D01*
X33856Y20423D01*
X33854Y20418D01*
X32172D01*
X31794Y20797D01*
Y21439D01*
X31539D01*
X31529Y21489D01*
X31549Y21497D01*
X31652Y21577D01*
X31731Y21680D01*
X31781Y21800D01*
X31798Y21929D01*
X31781Y22058D01*
X31731Y22178D01*
X31652Y22282D01*
X31549Y22361D01*
X31428Y22411D01*
X31387Y22416D01*
Y22467D01*
X31418Y22471D01*
X31528Y22517D01*
X31623Y22589D01*
X31696Y22684D01*
X31742Y22795D01*
X31757Y22913D01*
X31742Y23032D01*
X31696Y23143D01*
X31623Y23237D01*
X31528Y23310D01*
X31418Y23356D01*
X31299Y23372D01*
X31260Y23366D01*
X30411Y24216D01*
Y26336D01*
X30609Y26534D01*
X31004D01*
X31039Y26488D01*
D02*
G37*
G36*
X47621Y24296D02*
Y23783D01*
X47233Y23395D01*
X46988D01*
X46953Y23441D01*
X46854Y23517D01*
X46764Y23554D01*
X46766Y23608D01*
X46874Y23653D01*
X46981Y23735D01*
X47064Y23843D01*
X47116Y23968D01*
X47134Y24102D01*
X47116Y24237D01*
X47064Y24362D01*
X46981Y24470D01*
X46874Y24552D01*
X46766Y24597D01*
X46764Y24650D01*
X46854Y24687D01*
X46953Y24764D01*
X46988Y24810D01*
X47107D01*
X47621Y24296D01*
D02*
G37*
G36*
X36070Y31203D02*
X36002Y31151D01*
X35929Y31056D01*
X35884Y30946D01*
X35868Y30827D01*
X35884Y30708D01*
X35929Y30597D01*
X36002Y30502D01*
X36097Y30429D01*
X36208Y30384D01*
X36306Y30371D01*
X36838Y29839D01*
X36828Y29764D01*
X36845Y29635D01*
X36895Y29514D01*
X36974Y29411D01*
X37043Y29358D01*
X37026Y29308D01*
X36302D01*
X35619Y29991D01*
Y30528D01*
X35623Y30531D01*
X35689Y30618D01*
X35731Y30718D01*
X35739Y30777D01*
X35327D01*
Y30877D01*
X35739D01*
X35731Y30935D01*
X35689Y31036D01*
X35623Y31123D01*
X35536Y31189D01*
X35503Y31203D01*
X35513Y31253D01*
X36053D01*
X36070Y31203D01*
D02*
G37*
G36*
X48969Y29594D02*
X48920Y29584D01*
X48915Y29595D01*
X48868Y29656D01*
X48317Y30207D01*
X47407Y31117D01*
X47346Y31163D01*
X47276Y31193D01*
X47200Y31202D01*
X42250D01*
X42174Y31193D01*
X42104Y31163D01*
X42043Y31117D01*
X41644Y30717D01*
X41597Y30657D01*
X41568Y30586D01*
X41562Y30543D01*
X41532Y30533D01*
X41388Y30456D01*
X41261Y30353D01*
X41158Y30227D01*
X41081Y30083D01*
X41073Y30056D01*
X40690D01*
X40660Y30060D01*
X39887D01*
X39841Y30120D01*
X39737Y30200D01*
X39617Y30249D01*
X39488Y30266D01*
X39359Y30249D01*
X39239Y30200D01*
X39136Y30120D01*
X39090Y30060D01*
X38404D01*
X38374Y30056D01*
X37725D01*
X37679Y30116D01*
X37576Y30196D01*
X37456Y30245D01*
X37327Y30262D01*
X37252Y30252D01*
X36773Y30731D01*
X36786Y30827D01*
X36770Y30946D01*
X36724Y31056D01*
X36651Y31151D01*
X36584Y31203D01*
X36601Y31253D01*
X48969D01*
Y29594D01*
D02*
G37*
G36*
Y17887D02*
Y15991D01*
X47098D01*
X47081Y16041D01*
X47097Y16053D01*
X47333Y16289D01*
X48868Y17825D01*
X48915Y17885D01*
X48920Y17897D01*
X48969Y17887D01*
D02*
G37*
G36*
X40664Y29471D02*
X41073D01*
X41081Y29445D01*
X41158Y29301D01*
X41261Y29175D01*
X41388Y29071D01*
X41532Y28994D01*
X41688Y28947D01*
X41850Y28931D01*
X42013Y28947D01*
X42169Y28994D01*
X42313Y29071D01*
X42439Y29175D01*
X42543Y29301D01*
X42610Y29427D01*
X42612Y29428D01*
X42663D01*
X42665Y29427D01*
X42733Y29301D01*
X42836Y29175D01*
X42962Y29071D01*
X43106Y28994D01*
X43263Y28947D01*
X43425Y28931D01*
X43588Y28947D01*
X43744Y28994D01*
X43888Y29071D01*
X44014Y29175D01*
X44118Y29301D01*
X44195Y29445D01*
X44203Y29471D01*
X46099D01*
Y29249D01*
X46413D01*
X46423Y29199D01*
X46375Y29179D01*
X46275Y29103D01*
X46240Y29056D01*
X45169D01*
X45094Y29046D01*
X45023Y29017D01*
X44962Y28971D01*
X43477Y27485D01*
X43430Y27504D01*
Y27531D01*
X43420Y27607D01*
X43391Y27678D01*
X43345Y27738D01*
X42569Y28514D01*
X42508Y28560D01*
X42438Y28590D01*
X42362Y28600D01*
X39019D01*
X38396Y29223D01*
X38335Y29269D01*
X38265Y29298D01*
X38189Y29308D01*
X37627D01*
X37610Y29358D01*
X37679Y29411D01*
X37725Y29471D01*
X38400D01*
X38430Y29475D01*
X39090D01*
X39136Y29415D01*
X39239Y29336D01*
X39359Y29286D01*
X39488Y29269D01*
X39617Y29286D01*
X39737Y29336D01*
X39841Y29415D01*
X39887Y29475D01*
X40634D01*
X40664Y29471D01*
D02*
G37*
%LPC*%
G36*
X35249Y17913D02*
X35175Y17904D01*
X35060Y17856D01*
X34960Y17780D01*
X34884Y17680D01*
X34836Y17565D01*
X34827Y17491D01*
X35249D01*
Y17913D01*
D02*
G37*
G36*
Y17391D02*
X34827D01*
X34836Y17317D01*
X34884Y17201D01*
X34960Y17102D01*
X35060Y17026D01*
X35175Y16978D01*
X35249Y16968D01*
Y17391D01*
D02*
G37*
G36*
X39646Y21597D02*
X39517Y21580D01*
X39396Y21530D01*
X39293Y21451D01*
X39214Y21348D01*
X39164Y21227D01*
X39147Y21098D01*
X39164Y20969D01*
X39214Y20849D01*
X39293Y20746D01*
X39396Y20667D01*
X39401Y20665D01*
Y20012D01*
X39399Y20011D01*
X39296Y19932D01*
X39218Y19830D01*
X39168Y19711D01*
X39151Y19583D01*
X39168Y19455D01*
X39218Y19336D01*
X39296Y19233D01*
X39399Y19155D01*
X39510Y19109D01*
X39514Y19083D01*
X39510Y19057D01*
X39399Y19011D01*
X39296Y18932D01*
X39218Y18830D01*
X39217Y18827D01*
X37441D01*
X37347Y18809D01*
X37268Y18756D01*
X36468Y17956D01*
X35784D01*
Y17642D01*
X35734Y17632D01*
X35714Y17680D01*
X35638Y17780D01*
X35539Y17856D01*
X35423Y17904D01*
X35349Y17913D01*
Y17441D01*
Y16968D01*
X35423Y16978D01*
X35539Y17026D01*
X35638Y17102D01*
X35714Y17201D01*
X35734Y17250D01*
X35784Y17240D01*
Y16926D01*
X36814D01*
Y17610D01*
X37542Y18338D01*
X39217D01*
X39218Y18336D01*
X39296Y18233D01*
X39399Y18155D01*
X39476Y18123D01*
X39466Y18073D01*
X39156D01*
Y17093D01*
X40136D01*
Y18073D01*
X39825D01*
X39816Y18123D01*
X39893Y18155D01*
X39995Y18233D01*
X40074Y18336D01*
X40123Y18455D01*
X40140Y18583D01*
X40123Y18711D01*
X40074Y18830D01*
X39995Y18932D01*
X39893Y19011D01*
X39782Y19057D01*
X39777Y19083D01*
X39782Y19109D01*
X39893Y19155D01*
X39995Y19233D01*
X40074Y19336D01*
X40123Y19455D01*
X40140Y19583D01*
X40123Y19711D01*
X40074Y19830D01*
X39995Y19932D01*
X39893Y20011D01*
X39890Y20012D01*
Y20665D01*
X39895Y20667D01*
X39998Y20746D01*
X40077Y20849D01*
X40127Y20969D01*
X40144Y21098D01*
X40127Y21227D01*
X40077Y21348D01*
X39998Y21451D01*
X39895Y21530D01*
X39775Y21580D01*
X39646Y21597D01*
D02*
G37*
G36*
X34237Y24625D02*
X34169Y24616D01*
X34058Y24570D01*
X33963Y24497D01*
X33891Y24402D01*
X33845Y24292D01*
X33836Y24223D01*
X34237D01*
Y24625D01*
D02*
G37*
G36*
X34327Y30262D02*
X34198Y30245D01*
X34077Y30196D01*
X33974Y30116D01*
X33895Y30013D01*
X33889Y29999D01*
X33843Y29990D01*
X33764Y29937D01*
X32780Y28953D01*
X32727Y28873D01*
X32708Y28780D01*
Y25669D01*
X32720Y25611D01*
X32727Y25576D01*
X32727Y25576D01*
X32780Y25496D01*
X33276Y25000D01*
X33355Y24947D01*
X33355Y24947D01*
X33355Y24947D01*
X33449Y24929D01*
X33854D01*
X33856Y24924D01*
X33935Y24821D01*
X34038Y24741D01*
X34158Y24692D01*
X34260Y24678D01*
Y24675D01*
X34282D01*
X34287Y24675D01*
X34293Y24675D01*
X34315D01*
Y24678D01*
X34416Y24692D01*
X34537Y24741D01*
X34640Y24821D01*
X34719Y24924D01*
X34769Y25044D01*
X34786Y25173D01*
X34769Y25302D01*
X34719Y25423D01*
X34640Y25526D01*
X34537Y25605D01*
X34437Y25646D01*
Y25700D01*
X34537Y25741D01*
X34640Y25821D01*
X34719Y25924D01*
X34769Y26044D01*
X34786Y26173D01*
X34769Y26302D01*
X34719Y26423D01*
X34640Y26526D01*
X34537Y26605D01*
X34437Y26646D01*
Y26700D01*
X34537Y26741D01*
X34640Y26821D01*
X34719Y26924D01*
X34769Y27044D01*
X34786Y27173D01*
X34769Y27302D01*
X34719Y27423D01*
X34640Y27526D01*
X34537Y27605D01*
X34479Y27629D01*
X34489Y27679D01*
X34782D01*
Y28668D01*
X33793D01*
Y27679D01*
X34086D01*
X34096Y27629D01*
X34038Y27605D01*
X33935Y27526D01*
X33856Y27423D01*
X33806Y27302D01*
X33789Y27173D01*
X33806Y27044D01*
X33856Y26924D01*
X33935Y26821D01*
X34038Y26741D01*
X34137Y26700D01*
Y26646D01*
X34038Y26605D01*
X33935Y26526D01*
X33856Y26423D01*
X33806Y26302D01*
X33789Y26173D01*
X33806Y26044D01*
X33856Y25924D01*
X33935Y25821D01*
X34038Y25741D01*
X34137Y25700D01*
Y25646D01*
X34038Y25605D01*
X33935Y25526D01*
X33856Y25423D01*
X33854Y25418D01*
X33550D01*
X33197Y25771D01*
Y28678D01*
X33933Y29414D01*
X33974Y29411D01*
X34077Y29332D01*
X34198Y29282D01*
X34327Y29265D01*
X34456Y29282D01*
X34576Y29332D01*
X34679Y29411D01*
X34759Y29514D01*
X34808Y29635D01*
X34825Y29764D01*
X34808Y29893D01*
X34759Y30013D01*
X34679Y30116D01*
X34576Y30196D01*
X34456Y30245D01*
X34327Y30262D01*
D02*
G37*
G36*
X45079Y22309D02*
X44902Y22295D01*
X44730Y22254D01*
X44567Y22186D01*
X44416Y22093D01*
X44281Y21979D01*
X44166Y21844D01*
X44074Y21693D01*
X44006Y21530D01*
X43965Y21358D01*
X43951Y21181D01*
X43965Y21005D01*
X44006Y20833D01*
X44074Y20669D01*
X44166Y20518D01*
X44281Y20384D01*
X44416Y20269D01*
X44567Y20176D01*
X44730Y20109D01*
X44902Y20067D01*
X45079Y20053D01*
X45255Y20067D01*
X45427Y20109D01*
X45591Y20176D01*
X45742Y20269D01*
X45876Y20384D01*
X45991Y20518D01*
X46084Y20669D01*
X46151Y20833D01*
X46193Y21005D01*
X46206Y21181D01*
X46193Y21358D01*
X46151Y21530D01*
X46084Y21693D01*
X45991Y21844D01*
X45876Y21979D01*
X45742Y22093D01*
X45591Y22186D01*
X45427Y22254D01*
X45255Y22295D01*
X45079Y22309D01*
D02*
G37*
G36*
X34237Y24123D02*
X33836D01*
X33845Y24055D01*
X33891Y23944D01*
X33963Y23849D01*
X34058Y23776D01*
X34169Y23731D01*
X34237Y23722D01*
Y24123D01*
D02*
G37*
%LPD*%
D10*
X45079Y21181D02*
D03*
X30827Y30197D02*
D03*
D11*
X36327Y30827D02*
D03*
X35327D02*
D03*
D12*
X43138Y26732D02*
D03*
D13*
X42138D02*
D03*
X39488Y26768D02*
D03*
Y29768D02*
D03*
X37287Y21173D02*
D03*
Y20173D02*
D03*
X34287D02*
D03*
X37287Y22173D02*
D03*
Y23173D02*
D03*
Y24173D02*
D03*
X34287Y27173D02*
D03*
Y26173D02*
D03*
Y25173D02*
D03*
Y21173D02*
D03*
Y22173D02*
D03*
Y23173D02*
D03*
Y24173D02*
D03*
X37287Y26173D02*
D03*
Y25173D02*
D03*
Y27173D02*
D03*
Y28173D02*
D03*
X37327Y29764D02*
D03*
X34327D02*
D03*
X31299Y22913D02*
D03*
Y21929D02*
D03*
X39646Y24098D02*
D03*
Y21098D02*
D03*
X42953Y24098D02*
D03*
Y21098D02*
D03*
D14*
X41850Y29764D02*
D03*
X43425D02*
D03*
D15*
X34287Y28173D02*
D03*
X31299Y20945D02*
D03*
D16*
X46614Y29764D02*
D03*
X31378Y25827D02*
D03*
X46614Y26102D02*
D03*
Y18583D02*
D03*
D17*
Y28764D02*
D03*
X31283Y17441D02*
D03*
X31378Y26827D02*
D03*
X46614Y25102D02*
D03*
Y24102D02*
D03*
Y23102D02*
D03*
X35299Y17441D02*
D03*
X46614Y17583D02*
D03*
D18*
X32283Y17441D02*
D03*
X36299D02*
D03*
D19*
X39646Y19583D02*
D03*
Y18583D02*
D03*
X42953Y19543D02*
D03*
Y18543D02*
D03*
D20*
X39646Y17583D02*
D03*
X42953Y17543D02*
D03*
D21*
X35197Y24173D02*
X35669Y24646D01*
X48110Y30000D02*
X48661Y29449D01*
X47200Y30910D02*
X48110Y30000D01*
X46890Y16260D02*
X47126Y16496D01*
X48661Y18032D01*
X47228Y25102D02*
X47913Y24417D01*
Y23661D02*
Y24417D01*
X47354Y23102D02*
X47913Y23661D01*
X46614Y23102D02*
X47354D01*
X46614Y25102D02*
X47228D01*
X47874Y25748D01*
Y26716D01*
X47835Y18395D02*
Y21882D01*
X30118Y24094D02*
Y26457D01*
X30488Y26827D01*
X35669Y28504D02*
X36181Y29016D01*
X35669Y24646D02*
Y28504D01*
X35327Y29870D02*
X36181Y29016D01*
X38189D01*
X38898Y28307D01*
X42362D01*
X43138Y27531D01*
Y26732D02*
Y27531D01*
X35327Y29870D02*
Y30827D01*
X33689Y30789D02*
X35327D01*
X41024Y17047D02*
Y21256D01*
X34287Y24173D02*
X35197D01*
X31378Y26827D02*
Y28478D01*
X33689Y30789D01*
X45169Y28764D02*
X46614D01*
X43138Y26732D02*
X45169Y28764D01*
X46614Y17583D02*
X47023D01*
X47835Y18395D01*
X46614Y23102D02*
X47835Y21882D01*
X30488Y26827D02*
X31378D01*
X30118Y24094D02*
X31299Y22913D01*
X46614Y27976D02*
Y28764D01*
Y27976D02*
X47874Y26716D01*
X46614Y25102D02*
X46782Y25270D01*
X41024Y17047D02*
X41772Y16299D01*
X33465Y16260D02*
X46890D01*
X48661Y18032D02*
Y29449D01*
X38107Y24173D02*
X41024Y21256D01*
X37287Y24173D02*
X38107D01*
X41850Y29764D02*
Y30510D01*
X42250Y30910D01*
X47200D01*
X32283Y17441D02*
X33425Y16299D01*
X36327Y30764D02*
X37327Y29764D01*
X43425D02*
X46614D01*
X40664D02*
X41850D01*
X40660Y29768D02*
X40664Y29764D01*
X39488Y29768D02*
X40660D01*
X38404D02*
X39488D01*
X38400Y29764D02*
X38404Y29768D01*
X37327Y29764D02*
X38400D01*
D22*
X42953Y18583D02*
X46614D01*
X39488Y26732D02*
X42138D01*
X42953Y18543D02*
Y18583D01*
X30079Y18646D02*
X30540Y18184D01*
X30079Y18646D02*
Y21496D01*
X30512Y21929D01*
X35327Y30789D02*
Y30827D01*
X33937Y29764D02*
X34327D01*
X32953Y28780D02*
X33937Y29764D01*
X32953Y25669D02*
Y28780D01*
Y25669D02*
X33449Y25173D01*
X34287D01*
X32890Y23173D02*
X34287D01*
X32244Y23819D02*
X32890Y23173D01*
X32244Y23819D02*
Y24961D01*
X31378Y25827D02*
X32244Y24961D01*
X39488Y26732D02*
Y26768D01*
X32071Y20173D02*
X34287D01*
X31299Y20945D02*
X32071Y20173D01*
X35194Y30960D02*
X35327Y30827D01*
X39646Y24098D02*
X40527Y24980D01*
X44760D01*
X45882Y26102D01*
X46614D01*
X36327Y30764D02*
Y30827D01*
X37441Y18583D02*
X39646D01*
X36299Y17441D02*
X37441Y18583D01*
X30540Y18184D02*
X31283Y17441D01*
X30512Y21929D02*
X31299D01*
X44784Y24102D02*
X46614D01*
X44780Y24098D02*
X44784Y24102D01*
X42953Y24098D02*
X44780D01*
X42953Y19543D02*
Y21098D01*
X39646Y19583D02*
Y21098D01*
M02*
