G04 Layer_Color=16711935*
%FSLAX24Y24*%
%MOIN*%
G70*
G01*
G75*
%ADD24C,0.0100*%
D24*
X44361Y22402D02*
Y22801D01*
Y22602D01*
X44961D01*
X44361Y23301D02*
Y23101D01*
X44461Y23001D01*
X44861D01*
X44961Y23101D01*
Y23301D01*
X44861Y23401D01*
X44461D01*
X44361Y23301D01*
Y24201D02*
X44961D01*
Y24501D01*
X44861Y24601D01*
X44761D01*
X44661Y24501D01*
Y24201D01*
Y24501D01*
X44561Y24601D01*
X44461D01*
X44361Y24501D01*
Y24201D01*
X44961Y24901D02*
Y25101D01*
X44861Y25201D01*
X44661D01*
X44561Y25101D01*
Y24901D01*
X44661Y24801D01*
X44861D01*
X44961Y24901D01*
X44561Y25501D02*
Y25701D01*
X44661Y25800D01*
X44961D01*
Y25501D01*
X44861Y25401D01*
X44761Y25501D01*
Y25800D01*
X44561Y26000D02*
X44961D01*
X44761D01*
X44661Y26100D01*
X44561Y26200D01*
Y26300D01*
X44361Y27000D02*
X44961D01*
Y26700D01*
X44861Y26600D01*
X44661D01*
X44561Y26700D01*
Y27000D01*
X45709Y19488D02*
Y20088D01*
X45909Y19888D01*
X46109Y20088D01*
Y19488D01*
X46308D02*
Y19888D01*
X46508Y20088D01*
X46708Y19888D01*
Y19488D01*
Y19788D01*
X46308D01*
X46908Y19488D02*
Y20088D01*
X47308Y19488D01*
Y20088D01*
X37586Y17868D02*
X37686Y17968D01*
Y18168D01*
X37586Y18268D01*
X37187D01*
X37087Y18168D01*
Y17968D01*
X37187Y17868D01*
X37686Y17668D02*
X37087D01*
Y17268D01*
X37686Y17068D02*
X37087D01*
X37287D01*
X37686Y16668D01*
X37387Y16968D01*
X37087Y16668D01*
X30236Y19616D02*
Y19016D01*
X30536D01*
X30636Y19116D01*
Y19216D01*
X30536Y19316D01*
X30236D01*
X30536D01*
X30636Y19416D01*
Y19516D01*
X30536Y19616D01*
X30236D01*
X30936Y19016D02*
X31136D01*
X31236Y19116D01*
Y19316D01*
X31136Y19416D01*
X30936D01*
X30836Y19316D01*
Y19116D01*
X30936Y19016D01*
X31436Y19616D02*
Y19016D01*
X31736D01*
X31836Y19116D01*
Y19216D01*
Y19316D01*
X31736Y19416D01*
X31436D01*
X32036Y19016D02*
X32236D01*
X32136D01*
Y19416D01*
X32036D01*
X32535Y19016D02*
Y19416D01*
X32835D01*
X32935Y19316D01*
Y19016D01*
X33435D02*
X33235D01*
X33135Y19116D01*
Y19316D01*
X33235Y19416D01*
X33435D01*
X33535Y19316D01*
Y19216D01*
X33135D01*
X30300Y28119D02*
X30100D01*
X30000Y28020D01*
Y27620D01*
X30100Y27520D01*
X30300D01*
X30400Y27620D01*
Y28020D01*
X30300Y28119D01*
X30600D02*
Y27620D01*
X30700Y27520D01*
X30900D01*
X31000Y27620D01*
Y28119D01*
X31200D02*
X31599D01*
X31400D01*
Y27520D01*
X30400Y28846D02*
X30300Y28946D01*
X30100D01*
X30000Y28846D01*
Y28446D01*
X30100Y28346D01*
X30300D01*
X30400Y28446D01*
X30600Y28946D02*
Y28346D01*
X31000D01*
X31200Y28946D02*
Y28346D01*
Y28546D01*
X31599Y28946D01*
X31300Y28646D01*
X31599Y28346D01*
X31799D02*
Y28946D01*
X31999Y28746D01*
X32199Y28946D01*
Y28346D01*
X32399D02*
Y28746D01*
X32599Y28946D01*
X32799Y28746D01*
Y28346D01*
Y28646D01*
X32399D01*
X32999Y28346D02*
Y28946D01*
X33399Y28346D01*
Y28946D01*
X45630Y30591D02*
Y30990D01*
X45830Y31190D01*
X46030Y30990D01*
Y30591D01*
Y30890D01*
X45630D01*
X46230Y30591D02*
X46430D01*
X46330D01*
Y31190D01*
X46230D01*
X46730Y30591D02*
X46929D01*
X46830D01*
Y30990D01*
X46730D01*
X47229Y30591D02*
Y30990D01*
X47329D01*
X47429Y30890D01*
Y30591D01*
Y30890D01*
X47529Y30990D01*
X47629Y30890D01*
Y30591D01*
M02*
