M48
;Layer_Color=9474304
;FILE_FORMAT=2:4
INCH,LZ
;TYPE=PLATED
T1F00S00C0.0354
T2F00S00C0.0394
T3F00S00C0.0433
T4F00S00C0.0984
T5F00S00C0.1575
%
T01
X039646Y021098
Y024098
X039488Y026768
Y029768
X037327Y029764
X034327
X042953Y024098
Y021098
T02
X031283Y017441
X032283
X035299
X036299
X039646Y017583
Y018583
Y019583
X037287Y020173
Y021173
Y022173
Y023173
Y024173
Y025173
Y026173
Y027173
Y028173
X034287
Y027173
Y026173
Y025173
Y024173
Y023173
Y022173
Y021173
Y020173
X031378Y025827
Y026827
X035327Y030827
X036327
X042138Y026732
X043138
X046614Y026102
Y025102
Y024102
Y023102
Y018583
Y017583
X042953Y017543
Y018543
Y019543
X046614Y028764
Y029764
T03
X031299Y020945
Y021929
Y022913
T04
X04185Y029764
X043425
T05
X045079Y021181
X030827Y030197
M30
