G04 Layer_Physical_Order=2*
G04 Layer_Color=16711680*
%FSLAX24Y24*%
%MOIN*%
G70*
G01*
G75*
%ADD10C,0.0600*%
%ADD11C,0.0700*%
%ADD12R,0.0700X0.0700*%
%ADD13C,0.0750*%
%ADD14R,0.0750X0.0750*%
%ADD15C,0.0591*%
%ADD16R,0.0591X0.0591*%
%ADD17R,0.0700X0.0700*%
%ADD18C,0.0100*%
G36*
X42397Y28650D02*
X42203D01*
Y30100D01*
X42397D01*
Y28650D01*
D02*
G37*
G36*
X43597Y33137D02*
Y32364D01*
X43547Y32339D01*
X43477Y32393D01*
X43367Y32438D01*
X43250Y32454D01*
X43133Y32438D01*
X43059Y32408D01*
X42403Y33063D01*
Y33225D01*
X42725D01*
Y33943D01*
X42771Y33963D01*
X43597Y33137D01*
D02*
G37*
G36*
X42880Y31743D02*
X42929Y31679D01*
X43023Y31607D01*
X43133Y31562D01*
X43250Y31546D01*
X43265Y31548D01*
X43287Y31503D01*
X42784Y31000D01*
X42600D01*
Y30600D01*
X43000D01*
Y30784D01*
X43751Y31535D01*
X43798Y31516D01*
Y22202D01*
X42825D01*
Y23125D01*
X42384D01*
X42384Y23127D01*
X42316D01*
X42316Y23125D01*
X41875D01*
Y22803D01*
X38263D01*
X38178Y22888D01*
Y23762D01*
X38600Y24184D01*
X38647Y24165D01*
X38718Y24155D01*
X38736Y24103D01*
X38642Y24008D01*
X38609Y23959D01*
X38600Y23916D01*
X38551Y23895D01*
X38468Y23832D01*
X38405Y23749D01*
X38365Y23653D01*
X38351Y23550D01*
X38365Y23447D01*
X38405Y23351D01*
X38468Y23268D01*
X38551Y23205D01*
X38647Y23165D01*
X38750Y23151D01*
X38853Y23165D01*
X38949Y23205D01*
X39032Y23268D01*
X39095Y23351D01*
X39135Y23447D01*
X39149Y23550D01*
X39135Y23653D01*
X39095Y23749D01*
X39032Y23832D01*
X38986Y23867D01*
X38983Y23917D01*
X40058Y24992D01*
X41859Y26792D01*
X41933Y26762D01*
X42050Y26746D01*
X42167Y26762D01*
X42277Y26807D01*
X42347Y26861D01*
X42397Y26836D01*
Y26763D01*
X42241Y26608D01*
X42167Y26638D01*
X42100Y26647D01*
Y26250D01*
X42497D01*
X42488Y26317D01*
X42458Y26391D01*
X42658Y26592D01*
X42691Y26641D01*
X42703Y26700D01*
Y30100D01*
X43000D01*
Y30500D01*
X42550D01*
Y30550D01*
X42500D01*
Y31000D01*
X42203D01*
Y31137D01*
X42815Y31749D01*
X42880Y31743D01*
D02*
G37*
G36*
X41600Y27750D02*
X42397D01*
Y27564D01*
X42347Y27539D01*
X42277Y27593D01*
X42167Y27638D01*
X42050Y27654D01*
X41933Y27638D01*
X41823Y27593D01*
X41729Y27521D01*
X41657Y27427D01*
X41612Y27317D01*
X41596Y27200D01*
X41612Y27083D01*
X41642Y27009D01*
X39887Y25253D01*
X39083D01*
X39059Y25303D01*
X39095Y25351D01*
X39135Y25447D01*
X39149Y25550D01*
X39135Y25653D01*
X39116Y25700D01*
X41463Y28047D01*
X41600D01*
Y27750D01*
D02*
G37*
G36*
X36823Y38007D02*
X36897Y37976D01*
Y37363D01*
X35879Y36345D01*
X35352D01*
X35332Y36395D01*
X36658Y37722D01*
X36691Y37771D01*
X36703Y37830D01*
Y38036D01*
X36753Y38061D01*
X36823Y38007D01*
D02*
G37*
G36*
X43798Y33434D02*
X43751Y33415D01*
X42677Y34489D01*
X42713Y34576D01*
X42723Y34650D01*
X41777D01*
X41787Y34576D01*
X41835Y34460D01*
X41911Y34361D01*
X42010Y34285D01*
X42126Y34237D01*
X42219Y34225D01*
X42216Y34175D01*
X41991D01*
X41108Y35058D01*
X41059Y35091D01*
X41000Y35103D01*
X39064D01*
X39045Y35149D01*
X38982Y35232D01*
X38899Y35295D01*
X38895Y35297D01*
X38905Y35347D01*
X40850D01*
X40909Y35359D01*
X40958Y35392D01*
X41991Y36425D01*
X42627D01*
Y35293D01*
X42461Y35127D01*
X42374Y35163D01*
X42300Y35173D01*
Y34750D01*
X42723D01*
X42713Y34824D01*
X42677Y34911D01*
X42888Y35122D01*
X42921Y35171D01*
X42933Y35230D01*
Y37370D01*
X42921Y37429D01*
X42888Y37478D01*
X42677Y37689D01*
X42713Y37776D01*
X42723Y37850D01*
X41777D01*
X41787Y37776D01*
X41835Y37660D01*
X41911Y37561D01*
X42010Y37485D01*
X42126Y37437D01*
X42219Y37425D01*
X42216Y37375D01*
X41775D01*
Y36641D01*
X40787Y35653D01*
X39033D01*
X39009Y35703D01*
X39045Y35751D01*
X39085Y35847D01*
X39099Y35950D01*
X39085Y36053D01*
X39045Y36149D01*
X38982Y36232D01*
X38899Y36295D01*
X38803Y36335D01*
X38700Y36349D01*
X38597Y36335D01*
X38550Y36316D01*
X38203Y36663D01*
Y37950D01*
X38500D01*
Y38747D01*
X41187D01*
X41823Y38111D01*
X41787Y38024D01*
X41777Y37950D01*
X42200D01*
Y38373D01*
X42126Y38363D01*
X42039Y38327D01*
X41358Y39008D01*
X41309Y39041D01*
X41250Y39053D01*
X36800D01*
X36741Y39041D01*
X36692Y39008D01*
X36442Y38758D01*
X36425Y38733D01*
X36391Y38725D01*
X36365Y38726D01*
X36365Y38726D01*
X36277Y38793D01*
X36167Y38838D01*
X36050Y38854D01*
X35933Y38838D01*
X35823Y38793D01*
X35729Y38721D01*
X35657Y38627D01*
X35612Y38517D01*
X35596Y38400D01*
X35612Y38283D01*
X35657Y38173D01*
X35729Y38079D01*
X35823Y38007D01*
X35933Y37962D01*
X36050Y37946D01*
X36167Y37962D01*
X36277Y38007D01*
X36347Y38061D01*
X36397Y38036D01*
Y37893D01*
X34007Y35503D01*
X33275D01*
Y35825D01*
X32850D01*
Y35350D01*
X32800D01*
Y35300D01*
X32325D01*
Y35091D01*
X32122Y34888D01*
X32089Y34839D01*
X32077Y34780D01*
Y31170D01*
X32089Y31111D01*
X32122Y31062D01*
X32425Y30759D01*
Y30550D01*
X32850D01*
Y30975D01*
X32641D01*
X32383Y31233D01*
Y34031D01*
X32433Y34048D01*
X32461Y34011D01*
X32560Y33935D01*
X32676Y33887D01*
X32800Y33871D01*
X32924Y33887D01*
X33011Y33923D01*
X33092Y33842D01*
X33141Y33809D01*
X33200Y33797D01*
X35336D01*
X35355Y33751D01*
X35418Y33668D01*
X35501Y33605D01*
X35597Y33565D01*
X35700Y33551D01*
X35803Y33565D01*
X35899Y33605D01*
X35947Y33641D01*
X35997Y33617D01*
Y33283D01*
X35947Y33259D01*
X35899Y33295D01*
X35803Y33335D01*
X35750Y33342D01*
Y32950D01*
X35650D01*
Y33342D01*
X35597Y33335D01*
X35501Y33295D01*
X35418Y33232D01*
X35355Y33149D01*
X35334Y33100D01*
X35291Y33091D01*
X35242Y33058D01*
X33159Y30975D01*
X32950D01*
Y30550D01*
X33375D01*
Y30759D01*
X35333Y32717D01*
X35383Y32714D01*
X35418Y32668D01*
X35501Y32605D01*
X35597Y32565D01*
X35668Y32555D01*
X35686Y32503D01*
X33421Y30237D01*
X33375Y30257D01*
Y30450D01*
X32425D01*
Y30241D01*
X32222Y30038D01*
X32189Y29989D01*
X32177Y29930D01*
Y26020D01*
X32189Y25961D01*
X32222Y25912D01*
X32325Y25809D01*
Y25600D01*
X32750D01*
Y26025D01*
X32541D01*
X32483Y26083D01*
Y29181D01*
X32533Y29198D01*
X32561Y29161D01*
X32660Y29085D01*
X32747Y29049D01*
Y28400D01*
X32759Y28341D01*
X32792Y28292D01*
X35384Y25700D01*
X35365Y25653D01*
X35351Y25550D01*
X35365Y25447D01*
X35405Y25351D01*
X35441Y25303D01*
X35417Y25253D01*
X33313D01*
X33275Y25291D01*
Y25500D01*
X32850D01*
Y25075D01*
X33059D01*
X33142Y24992D01*
X33191Y24959D01*
X33250Y24947D01*
X35545D01*
X35555Y24897D01*
X35551Y24895D01*
X35468Y24832D01*
X35405Y24749D01*
X35386Y24703D01*
X33251D01*
X33215Y24790D01*
X33139Y24889D01*
X33040Y24965D01*
X32924Y25013D01*
X32831Y25025D01*
X32831Y25025D01*
X32800Y25029D01*
X32769Y25025D01*
X32769Y25025D01*
X32676Y25013D01*
X32560Y24965D01*
X32461Y24889D01*
X32385Y24790D01*
X32337Y24674D01*
X32321Y24550D01*
X32337Y24426D01*
X32385Y24310D01*
X32461Y24211D01*
X32560Y24135D01*
X32676Y24087D01*
X32800Y24071D01*
X32924Y24087D01*
X33040Y24135D01*
X33139Y24211D01*
X33215Y24310D01*
X33251Y24397D01*
X35386D01*
X35405Y24351D01*
X35468Y24268D01*
X35551Y24205D01*
X35647Y24165D01*
X35750Y24151D01*
X35853Y24165D01*
X35949Y24205D01*
X35997Y24241D01*
X36047Y24217D01*
Y24063D01*
X35900Y23916D01*
X35853Y23935D01*
X35800Y23942D01*
Y23600D01*
X36142D01*
X36135Y23653D01*
X36116Y23700D01*
X36308Y23892D01*
X36341Y23941D01*
X36353Y24000D01*
Y24900D01*
X36341Y24959D01*
X36308Y25008D01*
X36108Y25208D01*
X36068Y25235D01*
X36054Y25275D01*
X36052Y25294D01*
X36095Y25351D01*
X36135Y25447D01*
X36149Y25550D01*
X36135Y25653D01*
X36095Y25749D01*
X36032Y25832D01*
X35949Y25895D01*
X35853Y25935D01*
X35750Y25949D01*
X35647Y25935D01*
X35600Y25916D01*
X35408Y26109D01*
X35427Y26155D01*
X36145D01*
Y26945D01*
X35903D01*
Y28437D01*
X37009Y29542D01*
X37083Y29512D01*
X37200Y29496D01*
X37317Y29512D01*
X37427Y29557D01*
X37497Y29611D01*
X37547Y29586D01*
Y25700D01*
X37559Y25641D01*
X37592Y25592D01*
X38192Y24992D01*
X38241Y24959D01*
X38300Y24947D01*
X38545D01*
X38555Y24897D01*
X38551Y24895D01*
X38468Y24832D01*
X38405Y24749D01*
X38365Y24653D01*
X38351Y24550D01*
X38365Y24447D01*
X38384Y24400D01*
X37917Y23933D01*
X37884Y23884D01*
X37872Y23825D01*
Y22825D01*
X37884Y22766D01*
X37917Y22717D01*
X38092Y22542D01*
X38141Y22509D01*
X38200Y22497D01*
X41875D01*
Y22202D01*
X31602D01*
Y39498D01*
X43798D01*
Y33434D01*
D02*
G37*
G36*
X37600Y37950D02*
X37897D01*
Y36600D01*
X37909Y36541D01*
X37942Y36492D01*
X38334Y36100D01*
X38315Y36053D01*
X38301Y35950D01*
X38315Y35847D01*
X38355Y35751D01*
X38418Y35668D01*
X38435Y35655D01*
X38430Y35596D01*
X38142Y35308D01*
X38109Y35259D01*
X38097Y35200D01*
Y34400D01*
X38109Y34341D01*
X38142Y34292D01*
X38334Y34100D01*
X38315Y34053D01*
X38301Y33950D01*
X38315Y33847D01*
X38355Y33751D01*
X38418Y33668D01*
X38501Y33605D01*
X38597Y33565D01*
X38700Y33551D01*
X38803Y33565D01*
X38899Y33605D01*
X38982Y33668D01*
X39045Y33751D01*
X39085Y33847D01*
X39099Y33950D01*
X39085Y34053D01*
X39045Y34149D01*
X38982Y34232D01*
X38899Y34295D01*
X38803Y34335D01*
X38700Y34349D01*
X38597Y34335D01*
X38550Y34316D01*
X38403Y34463D01*
Y34617D01*
X38453Y34641D01*
X38501Y34605D01*
X38597Y34565D01*
X38700Y34551D01*
X38803Y34565D01*
X38899Y34605D01*
X38982Y34668D01*
X39045Y34751D01*
X39064Y34797D01*
X40937D01*
X41775Y33959D01*
Y33225D01*
X42097D01*
Y33000D01*
X42109Y32941D01*
X42142Y32892D01*
X42842Y32191D01*
X42824Y32148D01*
X42791Y32141D01*
X42742Y32108D01*
X41942Y31308D01*
X41909Y31259D01*
X41897Y31200D01*
Y30914D01*
X41847Y30889D01*
X41777Y30943D01*
X41667Y30988D01*
X41550Y31004D01*
X41433Y30988D01*
X41323Y30943D01*
X41229Y30871D01*
X41157Y30777D01*
X41126Y30703D01*
X40763D01*
X39658Y31809D01*
X39688Y31883D01*
X39704Y32000D01*
X39688Y32117D01*
X39643Y32227D01*
X39571Y32321D01*
X39477Y32393D01*
X39367Y32438D01*
X39250Y32454D01*
X39133Y32438D01*
X39023Y32393D01*
X38929Y32321D01*
X38857Y32227D01*
X38812Y32117D01*
X38796Y32000D01*
X38812Y31883D01*
X38857Y31773D01*
X38929Y31679D01*
X39023Y31607D01*
X39133Y31562D01*
X39250Y31546D01*
X39367Y31562D01*
X39441Y31592D01*
X40592Y30442D01*
X40641Y30409D01*
X40700Y30397D01*
X41126D01*
X41157Y30323D01*
X41229Y30229D01*
X41323Y30157D01*
X41433Y30112D01*
X41550Y30096D01*
X41667Y30112D01*
X41777Y30157D01*
X41847Y30211D01*
X41897Y30186D01*
Y28650D01*
X41600D01*
Y28353D01*
X41400D01*
X41341Y28341D01*
X41292Y28308D01*
X38900Y25916D01*
X38853Y25935D01*
X38750Y25949D01*
X38647Y25935D01*
X38551Y25895D01*
X38468Y25832D01*
X38405Y25749D01*
X38365Y25653D01*
X38351Y25550D01*
X38365Y25447D01*
X38405Y25351D01*
X38441Y25303D01*
X38417Y25253D01*
X38363D01*
X37853Y25763D01*
Y29500D01*
X38047D01*
Y27100D01*
X38059Y27041D01*
X38092Y26992D01*
X38384Y26700D01*
X38365Y26653D01*
X38351Y26550D01*
X38365Y26447D01*
X38405Y26351D01*
X38468Y26268D01*
X38551Y26205D01*
X38647Y26165D01*
X38750Y26151D01*
X38853Y26165D01*
X38949Y26205D01*
X39032Y26268D01*
X39095Y26351D01*
X39135Y26447D01*
X39149Y26550D01*
X39135Y26653D01*
X39095Y26749D01*
X39032Y26832D01*
X38949Y26895D01*
X38853Y26935D01*
X38750Y26949D01*
X38647Y26935D01*
X38600Y26916D01*
X38353Y27163D01*
Y29500D01*
X38650D01*
Y30400D01*
X37853D01*
Y31887D01*
X38550Y32584D01*
X38597Y32565D01*
X38700Y32551D01*
X38803Y32565D01*
X38899Y32605D01*
X38982Y32668D01*
X39045Y32751D01*
X39085Y32847D01*
X39099Y32950D01*
X39085Y33053D01*
X39045Y33149D01*
X38982Y33232D01*
X38899Y33295D01*
X38803Y33335D01*
X38700Y33349D01*
X38597Y33335D01*
X38501Y33295D01*
X38418Y33232D01*
X38355Y33149D01*
X38315Y33053D01*
X38301Y32950D01*
X38315Y32847D01*
X38334Y32800D01*
X37592Y32058D01*
X37559Y32009D01*
X37547Y31950D01*
Y30314D01*
X37497Y30289D01*
X37427Y30343D01*
X37317Y30388D01*
X37200Y30404D01*
X37083Y30388D01*
X36973Y30343D01*
X36879Y30271D01*
X36807Y30177D01*
X36762Y30067D01*
X36746Y29950D01*
X36762Y29833D01*
X36792Y29759D01*
X35642Y28608D01*
X35609Y28559D01*
X35597Y28500D01*
Y26945D01*
X35355D01*
Y26227D01*
X35309Y26208D01*
X33053Y28463D01*
Y29049D01*
X33140Y29085D01*
X33239Y29161D01*
X33315Y29260D01*
X33363Y29376D01*
X33379Y29500D01*
X33363Y29624D01*
X33327Y29711D01*
X36258Y32642D01*
X36291Y32691D01*
X36303Y32750D01*
Y34500D01*
X36291Y34559D01*
X36258Y34608D01*
X36066Y34800D01*
X36085Y34847D01*
X36099Y34950D01*
X36085Y35053D01*
X36045Y35149D01*
X35982Y35232D01*
X35899Y35295D01*
X35803Y35335D01*
X35700Y35349D01*
X35597Y35335D01*
X35501Y35295D01*
X35418Y35232D01*
X35355Y35149D01*
X35315Y35053D01*
X35301Y34950D01*
X35315Y34847D01*
X35355Y34751D01*
X35418Y34668D01*
X35501Y34605D01*
X35597Y34565D01*
X35700Y34551D01*
X35803Y34565D01*
X35850Y34584D01*
X35997Y34437D01*
Y34283D01*
X35947Y34259D01*
X35899Y34295D01*
X35803Y34335D01*
X35700Y34349D01*
X35597Y34335D01*
X35501Y34295D01*
X35418Y34232D01*
X35355Y34149D01*
X35336Y34103D01*
X33263D01*
X33227Y34139D01*
X33263Y34226D01*
X33279Y34350D01*
X33263Y34474D01*
X33215Y34590D01*
X33139Y34689D01*
X33040Y34765D01*
X32924Y34813D01*
X32831Y34825D01*
X32834Y34875D01*
X33275D01*
Y35197D01*
X34070D01*
X34129Y35209D01*
X34178Y35242D01*
X35255Y36318D01*
X35305Y36298D01*
Y35555D01*
X36095D01*
Y36129D01*
X37158Y37192D01*
X37191Y37241D01*
X37203Y37300D01*
Y37976D01*
X37277Y38007D01*
X37371Y38079D01*
X37443Y38173D01*
X37488Y38283D01*
X37504Y38400D01*
X37488Y38517D01*
X37443Y38627D01*
X37389Y38697D01*
X37414Y38747D01*
X37600D01*
Y37950D01*
D02*
G37*
%LPC*%
G36*
X35700Y23942D02*
X35647Y23935D01*
X35551Y23895D01*
X35468Y23832D01*
X35405Y23749D01*
X35365Y23653D01*
X35358Y23600D01*
X35700D01*
Y23942D01*
D02*
G37*
G36*
X42497Y26150D02*
X41603D01*
X41612Y26083D01*
X41657Y25973D01*
X41729Y25879D01*
X41823Y25807D01*
X41897Y25776D01*
Y23950D01*
X41909Y23891D01*
X41925Y23866D01*
X41887Y23774D01*
X41877Y23700D01*
X42300D01*
Y24123D01*
X42253Y24116D01*
X42203Y24153D01*
Y25776D01*
X42277Y25807D01*
X42371Y25879D01*
X42443Y25973D01*
X42488Y26083D01*
X42497Y26150D01*
D02*
G37*
G36*
X42400Y24123D02*
Y23700D01*
X42823D01*
X42813Y23774D01*
X42765Y23890D01*
X42689Y23989D01*
X42590Y24065D01*
X42474Y24113D01*
X42400Y24123D01*
D02*
G37*
G36*
X42823Y23600D02*
X42400D01*
Y23177D01*
X42474Y23187D01*
X42590Y23235D01*
X42689Y23311D01*
X42765Y23410D01*
X42813Y23526D01*
X42823Y23600D01*
D02*
G37*
G36*
X42300D02*
X41877D01*
X41887Y23526D01*
X41935Y23410D01*
X42011Y23311D01*
X42110Y23235D01*
X42226Y23187D01*
X42300Y23177D01*
Y23600D01*
D02*
G37*
G36*
X36142Y23500D02*
X35800D01*
Y23158D01*
X35853Y23165D01*
X35949Y23205D01*
X36032Y23268D01*
X36095Y23351D01*
X36135Y23447D01*
X36142Y23500D01*
D02*
G37*
G36*
X35700D02*
X35358D01*
X35365Y23447D01*
X35405Y23351D01*
X35468Y23268D01*
X35551Y23205D01*
X35647Y23165D01*
X35700Y23158D01*
Y23500D01*
D02*
G37*
G36*
X36200Y30404D02*
X36083Y30388D01*
X35973Y30343D01*
X35879Y30271D01*
X35807Y30177D01*
X35762Y30067D01*
X35746Y29950D01*
X35762Y29833D01*
X35807Y29723D01*
X35879Y29629D01*
X35973Y29557D01*
X36083Y29512D01*
X36200Y29496D01*
X36317Y29512D01*
X36427Y29557D01*
X36521Y29629D01*
X36593Y29723D01*
X36638Y29833D01*
X36654Y29950D01*
X36638Y30067D01*
X36593Y30177D01*
X36521Y30271D01*
X36427Y30343D01*
X36317Y30388D01*
X36200Y30404D01*
D02*
G37*
G36*
X42200Y35173D02*
X42126Y35163D01*
X42010Y35115D01*
X41911Y35039D01*
X41835Y34940D01*
X41787Y34824D01*
X41777Y34750D01*
X42200D01*
Y35173D01*
D02*
G37*
G36*
X32750Y35825D02*
X32325D01*
Y35400D01*
X32750D01*
Y35825D01*
D02*
G37*
G36*
X42300Y38373D02*
Y37950D01*
X42723D01*
X42713Y38024D01*
X42665Y38140D01*
X42589Y38239D01*
X42490Y38315D01*
X42374Y38363D01*
X42300Y38373D01*
D02*
G37*
G36*
X32750Y25500D02*
X32325D01*
Y25075D01*
X32750D01*
Y25500D01*
D02*
G37*
G36*
X33275Y26025D02*
X32850D01*
Y25600D01*
X33275D01*
Y26025D01*
D02*
G37*
G36*
X42000Y26647D02*
X41933Y26638D01*
X41823Y26593D01*
X41729Y26521D01*
X41657Y26427D01*
X41612Y26317D01*
X41603Y26250D01*
X42000D01*
Y26647D01*
D02*
G37*
%LPD*%
D10*
X43200Y38950D02*
D03*
X32400Y22900D02*
D03*
X32450Y38700D02*
D03*
D11*
X42050Y27200D02*
D03*
Y26200D02*
D03*
X41550Y30550D02*
D03*
X37200Y29950D02*
D03*
X36200D02*
D03*
X43250Y32000D02*
D03*
X39250D02*
D03*
X37050Y38400D02*
D03*
X36050D02*
D03*
D12*
X42050Y28200D02*
D03*
X42550Y30550D02*
D03*
D13*
X32800Y24550D02*
D03*
X42350Y23650D02*
D03*
X32900Y29500D02*
D03*
X32800Y34350D02*
D03*
X42250Y34700D02*
D03*
Y37900D02*
D03*
D14*
X32800Y25550D02*
D03*
X42350Y22650D02*
D03*
X32900Y30500D02*
D03*
X32800Y35350D02*
D03*
X42250Y33700D02*
D03*
Y36900D02*
D03*
D15*
X38750Y23550D02*
D03*
Y24550D02*
D03*
Y25550D02*
D03*
Y26550D02*
D03*
X35750Y23550D02*
D03*
Y24550D02*
D03*
Y25550D02*
D03*
X38700Y32950D02*
D03*
Y33950D02*
D03*
Y34950D02*
D03*
Y35950D02*
D03*
X35700Y32950D02*
D03*
Y33950D02*
D03*
Y34950D02*
D03*
D16*
X35750Y26550D02*
D03*
X35700Y35950D02*
D03*
D17*
X38200Y29950D02*
D03*
X38050Y38400D02*
D03*
D18*
X38700Y34950D02*
X41000D01*
X42250Y33700D01*
Y33000D02*
Y33700D01*
Y33000D02*
X43250Y32000D01*
X42850D02*
X43250D01*
X42050Y31200D02*
X42850Y32000D01*
X42050Y28200D02*
Y31200D01*
X41400Y28200D02*
X42050D01*
X38750Y25550D02*
X41400Y28200D01*
X38750Y23550D02*
Y23900D01*
X39950Y25100D02*
X42050Y27200D01*
X38750Y23900D02*
X39950Y25100D01*
X38300D02*
X39950D01*
X37700Y25700D02*
X38300Y25100D01*
X37700Y25700D02*
Y31950D01*
X38700Y32950D01*
X35750Y28500D02*
X37200Y29950D01*
X35750Y26550D02*
Y28500D01*
X38200Y27100D02*
Y29950D01*
Y27100D02*
X38750Y26550D01*
X37050Y37300D02*
Y38400D01*
X35700Y35950D02*
X37050Y37300D01*
X38050Y36600D02*
Y38400D01*
Y36600D02*
X38700Y35950D01*
X40700Y30550D02*
X41550D01*
X39250Y32000D02*
X40700Y30550D01*
X38025Y23825D02*
X38750Y24550D01*
X38025Y22825D02*
X38200Y22650D01*
X42350D01*
X40850Y35500D02*
X42250Y36900D01*
X38550Y35500D02*
X40850D01*
X38250Y35200D02*
X38550Y35500D01*
X38250Y34400D02*
Y35200D01*
Y34400D02*
X38700Y33950D01*
X33200D02*
X35700D01*
X32800Y34350D02*
X33200Y33950D01*
X35700Y34950D02*
X36150Y34500D01*
Y32750D02*
Y34500D01*
X32900Y29500D02*
X36150Y32750D01*
X32900Y28400D02*
X35750Y25550D01*
X32900Y28400D02*
Y29500D01*
X42050Y23950D02*
X42350Y23650D01*
X42050Y23950D02*
Y26200D01*
X42550Y26700D01*
Y30550D01*
X43750Y31750D01*
Y33200D01*
X42250Y34700D02*
X43750Y33200D01*
X42250Y34700D02*
X42780Y35230D01*
Y37370D01*
X42250Y37900D02*
X42780Y37370D01*
X41250Y38900D02*
X42250Y37900D01*
X36800Y38900D02*
X41250D01*
X36550Y38650D02*
X36800Y38900D01*
X36550Y37830D02*
Y38650D01*
X34070Y35350D02*
X36550Y37830D01*
X32800Y35350D02*
X34070D01*
X32230Y34780D02*
X32800Y35350D01*
X32230Y31170D02*
Y34780D01*
Y31170D02*
X32900Y30500D01*
X35350Y32950D02*
X35700D01*
X32900Y30500D02*
X35350Y32950D01*
X32330Y29930D02*
X32900Y30500D01*
X32330Y26020D02*
Y29930D01*
Y26020D02*
X32800Y25550D01*
Y24550D02*
X35750D01*
Y23550D02*
X36200Y24000D01*
Y24900D01*
X36000Y25100D02*
X36200Y24900D01*
X33250Y25100D02*
X36000D01*
X32800Y25550D02*
X33250Y25100D01*
X38025Y22825D02*
Y23825D01*
M02*
