G04 Layer_Color=16711935*
%FSLAX24Y24*%
%MOIN*%
G70*
G01*
G75*
%ADD18C,0.0100*%
D18*
X32050Y36650D02*
X31950Y36750D01*
X31750D01*
X31650Y36650D01*
Y36250D01*
X31750Y36150D01*
X31950D01*
X32050Y36250D01*
X32250Y36750D02*
Y36150D01*
X32650D01*
X32850Y36750D02*
Y36150D01*
Y36350D01*
X33249Y36750D01*
X32950Y36450D01*
X33249Y36150D01*
X33449Y36750D02*
X33649D01*
X33549D01*
Y36150D01*
X33449D01*
X33649D01*
X33949D02*
Y36750D01*
X34349Y36150D01*
Y36750D01*
X31650Y31800D02*
Y31200D01*
X32050D01*
X32650Y31800D02*
X32250D01*
Y31200D01*
X32650D01*
X32250Y31500D02*
X32450D01*
X32850Y31800D02*
Y31200D01*
X33150D01*
X33249Y31300D01*
Y31700D01*
X33150Y31800D01*
X32850D01*
X33449Y31200D02*
Y31800D01*
X33749D01*
X33849Y31700D01*
Y31500D01*
X33749Y31400D01*
X33449D01*
X33649D02*
X33849Y31200D01*
X34449Y31800D02*
X34049D01*
Y31200D01*
X34449D01*
X34049Y31500D02*
X34249D01*
X35049Y31800D02*
X34649D01*
Y31500D01*
X34849D01*
X34649D01*
Y31200D01*
X31600Y26300D02*
Y26900D01*
X31800Y26700D01*
X32000Y26900D01*
Y26300D01*
X32200D02*
Y26700D01*
X32400Y26900D01*
X32600Y26700D01*
Y26300D01*
Y26600D01*
X32200D01*
X32800Y26300D02*
Y26900D01*
X33199Y26300D01*
Y26900D01*
X33399D02*
X33599D01*
X33499D01*
Y26300D01*
X33399D01*
X33599D01*
X33899D02*
Y26900D01*
X34299Y26300D01*
Y26900D01*
X40300Y24450D02*
Y25050D01*
X40500Y24850D01*
X40700Y25050D01*
Y24450D01*
X40900D02*
Y24850D01*
X41100Y25050D01*
X41300Y24850D01*
Y24450D01*
Y24750D01*
X40900D01*
X41500Y24450D02*
Y25050D01*
X41899Y24450D01*
Y25050D01*
X42399D02*
X42199D01*
X42099Y24950D01*
Y24550D01*
X42199Y24450D01*
X42399D01*
X42499Y24550D01*
Y24950D01*
X42399Y25050D01*
X42699D02*
Y24550D01*
X42799Y24450D01*
X42999D01*
X43099Y24550D01*
Y25050D01*
X43299D02*
X43699D01*
X43499D01*
Y24450D01*
X43750Y28850D02*
X43350D01*
X43150Y28650D01*
X43350Y28450D01*
X43750D01*
X43150Y28250D02*
X43750D01*
Y27950D01*
X43650Y27850D01*
X43450D01*
X43350Y27950D01*
Y28250D01*
Y28050D02*
X43150Y27850D01*
X43750Y27251D02*
Y27650D01*
X43150D01*
Y27251D01*
X43450Y27650D02*
Y27450D01*
X43750Y26651D02*
Y27051D01*
X43450D01*
Y26851D01*
Y27051D01*
X43150D01*
X41300Y35300D02*
Y35700D01*
X41500Y35900D01*
X41700Y35700D01*
Y35300D01*
Y35600D01*
X41300D01*
X41900Y35900D02*
Y35300D01*
X42300D01*
X42500Y35900D02*
X42700D01*
X42600D01*
Y35300D01*
X42500D01*
X42700D01*
X42999D02*
Y35900D01*
X43199Y35700D01*
X43399Y35900D01*
Y35300D01*
X40900Y39200D02*
X40800Y39300D01*
X40600D01*
X40500Y39200D01*
Y38800D01*
X40600Y38700D01*
X40800D01*
X40900Y38800D01*
X41100Y39300D02*
Y38700D01*
X41500D01*
X41700Y39300D02*
Y38700D01*
Y38900D01*
X42099Y39300D01*
X41800Y39000D01*
X42099Y38700D01*
X42599Y39300D02*
X42399D01*
X42299Y39200D01*
Y38800D01*
X42399Y38700D01*
X42599D01*
X42699Y38800D01*
Y39200D01*
X42599Y39300D01*
X42899D02*
Y38800D01*
X42999Y38700D01*
X43199D01*
X43299Y38800D01*
Y39300D01*
X43499D02*
X43899D01*
X43699D01*
Y38700D01*
M02*
