M48
;Layer_Color=9474304
;FILE_FORMAT=2:4
INCH,LZ
;TYPE=PLATED
T1F00S00C0.0315
T2F00S00C0.0354
T3F00S00C0.0394
T4F00S00C0.0400
T5F00S00C0.0906
%
T01
X03925Y032
X04325
T02
X03575Y02355
Y02455
Y02555
Y02655
X03875
Y02555
Y02455
Y02355
X0387Y03295
Y03395
Y03495
Y03595
X0357
Y03495
Y03395
Y03295
T03
X0328Y02455
Y02555
X0329Y0295
Y0305
X04235Y02365
Y02265
X04225Y0337
Y0347
Y0369
Y0379
X0328Y03535
Y03435
T04
X0362Y02995
X0372
X0382
X04155Y03055
X04255
X04205Y0282
Y0272
Y0262
X03805Y0384
X03705
X03605
T05
X0324Y0229
X03245Y0387
X0432Y03895
M30
