G04 Layer_Physical_Order=1*
G04 Layer_Color=255*
%FSLAX24Y24*%
%MOIN*%
G70*
G01*
G75*
%ADD10C,0.0600*%
%ADD11C,0.0700*%
%ADD12R,0.0700X0.0700*%
%ADD13C,0.0750*%
%ADD14R,0.0750X0.0750*%
%ADD15C,0.0591*%
%ADD16R,0.0591X0.0591*%
%ADD17R,0.0700X0.0700*%
G36*
X43798Y22202D02*
X42825D01*
Y23125D01*
X42384D01*
X42384Y23127D01*
X42316D01*
X42316Y23125D01*
X41875D01*
Y22202D01*
X31602D01*
Y39498D01*
X43798D01*
Y22202D01*
D02*
G37*
%LPC*%
G36*
X42000Y26647D02*
X41933Y26638D01*
X41823Y26593D01*
X41729Y26521D01*
X41657Y26427D01*
X41612Y26317D01*
X41603Y26250D01*
X42000D01*
Y26647D01*
D02*
G37*
G36*
X36145Y26945D02*
X35355D01*
Y26155D01*
X36145D01*
Y26945D01*
D02*
G37*
G36*
X42050Y27654D02*
X41933Y27638D01*
X41823Y27593D01*
X41729Y27521D01*
X41657Y27427D01*
X41612Y27317D01*
X41596Y27200D01*
X41612Y27083D01*
X41657Y26973D01*
X41729Y26879D01*
X41823Y26807D01*
X41933Y26762D01*
X42050Y26746D01*
X42167Y26762D01*
X42277Y26807D01*
X42371Y26879D01*
X42443Y26973D01*
X42488Y27083D01*
X42504Y27200D01*
X42488Y27317D01*
X42443Y27427D01*
X42371Y27521D01*
X42277Y27593D01*
X42167Y27638D01*
X42050Y27654D01*
D02*
G37*
G36*
X42100Y26647D02*
Y26250D01*
X42497D01*
X42488Y26317D01*
X42443Y26427D01*
X42371Y26521D01*
X42277Y26593D01*
X42167Y26638D01*
X42100Y26647D01*
D02*
G37*
G36*
X42000Y26150D02*
X41603D01*
X41612Y26083D01*
X41657Y25973D01*
X41729Y25879D01*
X41823Y25807D01*
X41933Y25762D01*
X42000Y25753D01*
Y26150D01*
D02*
G37*
G36*
X33275Y26025D02*
X32850D01*
Y25600D01*
X33275D01*
Y26025D01*
D02*
G37*
G36*
X38750Y26949D02*
X38647Y26935D01*
X38551Y26895D01*
X38468Y26832D01*
X38405Y26749D01*
X38365Y26653D01*
X38351Y26550D01*
X38365Y26447D01*
X38405Y26351D01*
X38468Y26268D01*
X38551Y26205D01*
X38647Y26165D01*
X38750Y26151D01*
X38853Y26165D01*
X38949Y26205D01*
X39032Y26268D01*
X39095Y26351D01*
X39135Y26447D01*
X39149Y26550D01*
X39135Y26653D01*
X39095Y26749D01*
X39032Y26832D01*
X38949Y26895D01*
X38853Y26935D01*
X38750Y26949D01*
D02*
G37*
G36*
X42497Y26150D02*
X42100D01*
Y25753D01*
X42167Y25762D01*
X42277Y25807D01*
X42371Y25879D01*
X42443Y25973D01*
X42488Y26083D01*
X42497Y26150D01*
D02*
G37*
G36*
X42500Y28650D02*
X41600D01*
Y27750D01*
X42500D01*
Y28650D01*
D02*
G37*
G36*
X33375Y30450D02*
X32950D01*
Y30025D01*
X33375D01*
Y30450D01*
D02*
G37*
G36*
X32850D02*
X32425D01*
Y30025D01*
X32850D01*
Y30450D01*
D02*
G37*
G36*
X42500Y30500D02*
X42100D01*
Y30100D01*
X42500D01*
Y30500D01*
D02*
G37*
G36*
X41550Y31004D02*
X41433Y30988D01*
X41323Y30943D01*
X41229Y30871D01*
X41157Y30777D01*
X41112Y30667D01*
X41096Y30550D01*
X41112Y30433D01*
X41157Y30323D01*
X41229Y30229D01*
X41323Y30157D01*
X41433Y30112D01*
X41550Y30096D01*
X41667Y30112D01*
X41777Y30157D01*
X41871Y30229D01*
X41943Y30323D01*
X41988Y30433D01*
X42004Y30550D01*
X41988Y30667D01*
X41943Y30777D01*
X41871Y30871D01*
X41777Y30943D01*
X41667Y30988D01*
X41550Y31004D01*
D02*
G37*
G36*
X36200Y30404D02*
X36083Y30388D01*
X35973Y30343D01*
X35879Y30271D01*
X35807Y30177D01*
X35762Y30067D01*
X35746Y29950D01*
X35762Y29833D01*
X35807Y29723D01*
X35879Y29629D01*
X35973Y29557D01*
X36083Y29512D01*
X36200Y29496D01*
X36317Y29512D01*
X36427Y29557D01*
X36521Y29629D01*
X36593Y29723D01*
X36638Y29833D01*
X36654Y29950D01*
X36638Y30067D01*
X36593Y30177D01*
X36521Y30271D01*
X36427Y30343D01*
X36317Y30388D01*
X36200Y30404D01*
D02*
G37*
G36*
X32900Y29979D02*
X32869Y29975D01*
X32869Y29975D01*
X32776Y29963D01*
X32660Y29915D01*
X32561Y29839D01*
X32485Y29740D01*
X32437Y29624D01*
X32421Y29500D01*
X32437Y29376D01*
X32485Y29260D01*
X32561Y29161D01*
X32660Y29085D01*
X32776Y29037D01*
X32900Y29021D01*
X33024Y29037D01*
X33140Y29085D01*
X33239Y29161D01*
X33315Y29260D01*
X33363Y29376D01*
X33379Y29500D01*
X33363Y29624D01*
X33315Y29740D01*
X33239Y29839D01*
X33140Y29915D01*
X33024Y29963D01*
X32931Y29975D01*
X32931Y29975D01*
X32900Y29979D01*
D02*
G37*
G36*
X38650Y30400D02*
X37750D01*
Y29500D01*
X38650D01*
Y30400D01*
D02*
G37*
G36*
X37200Y30404D02*
X37083Y30388D01*
X36973Y30343D01*
X36879Y30271D01*
X36807Y30177D01*
X36762Y30067D01*
X36746Y29950D01*
X36762Y29833D01*
X36807Y29723D01*
X36879Y29629D01*
X36973Y29557D01*
X37083Y29512D01*
X37200Y29496D01*
X37317Y29512D01*
X37427Y29557D01*
X37521Y29629D01*
X37593Y29723D01*
X37638Y29833D01*
X37654Y29950D01*
X37638Y30067D01*
X37593Y30177D01*
X37521Y30271D01*
X37427Y30343D01*
X37317Y30388D01*
X37200Y30404D01*
D02*
G37*
G36*
X35700Y23942D02*
X35647Y23935D01*
X35551Y23895D01*
X35468Y23832D01*
X35405Y23749D01*
X35365Y23653D01*
X35358Y23600D01*
X35700D01*
Y23942D01*
D02*
G37*
G36*
X42823Y23600D02*
X42400D01*
Y23177D01*
X42474Y23187D01*
X42590Y23235D01*
X42689Y23311D01*
X42765Y23410D01*
X42813Y23526D01*
X42823Y23600D01*
D02*
G37*
G36*
X42300Y24123D02*
X42226Y24113D01*
X42110Y24065D01*
X42011Y23989D01*
X41935Y23890D01*
X41887Y23774D01*
X41877Y23700D01*
X42300D01*
Y24123D01*
D02*
G37*
G36*
X35800Y23942D02*
Y23600D01*
X36142D01*
X36135Y23653D01*
X36095Y23749D01*
X36032Y23832D01*
X35949Y23895D01*
X35853Y23935D01*
X35800Y23942D01*
D02*
G37*
G36*
X35700Y23500D02*
X35358D01*
X35365Y23447D01*
X35405Y23351D01*
X35468Y23268D01*
X35551Y23205D01*
X35647Y23165D01*
X35700Y23158D01*
Y23500D01*
D02*
G37*
G36*
X38750Y23949D02*
X38647Y23935D01*
X38551Y23895D01*
X38468Y23832D01*
X38405Y23749D01*
X38365Y23653D01*
X38351Y23550D01*
X38365Y23447D01*
X38405Y23351D01*
X38468Y23268D01*
X38551Y23205D01*
X38647Y23165D01*
X38750Y23151D01*
X38853Y23165D01*
X38949Y23205D01*
X39032Y23268D01*
X39095Y23351D01*
X39135Y23447D01*
X39149Y23550D01*
X39135Y23653D01*
X39095Y23749D01*
X39032Y23832D01*
X38949Y23895D01*
X38853Y23935D01*
X38750Y23949D01*
D02*
G37*
G36*
X42300Y23600D02*
X41877D01*
X41887Y23526D01*
X41935Y23410D01*
X42011Y23311D01*
X42110Y23235D01*
X42226Y23187D01*
X42300Y23177D01*
Y23600D01*
D02*
G37*
G36*
X36142Y23500D02*
X35800D01*
Y23158D01*
X35853Y23165D01*
X35949Y23205D01*
X36032Y23268D01*
X36095Y23351D01*
X36135Y23447D01*
X36142Y23500D01*
D02*
G37*
G36*
X42400Y24123D02*
Y23700D01*
X42823D01*
X42813Y23774D01*
X42765Y23890D01*
X42689Y23989D01*
X42590Y24065D01*
X42474Y24113D01*
X42400Y24123D01*
D02*
G37*
G36*
X35750Y25949D02*
X35647Y25935D01*
X35551Y25895D01*
X35468Y25832D01*
X35405Y25749D01*
X35365Y25653D01*
X35351Y25550D01*
X35365Y25447D01*
X35405Y25351D01*
X35468Y25268D01*
X35551Y25205D01*
X35647Y25165D01*
X35750Y25151D01*
X35853Y25165D01*
X35949Y25205D01*
X36032Y25268D01*
X36095Y25351D01*
X36135Y25447D01*
X36149Y25550D01*
X36135Y25653D01*
X36095Y25749D01*
X36032Y25832D01*
X35949Y25895D01*
X35853Y25935D01*
X35750Y25949D01*
D02*
G37*
G36*
X33275Y25500D02*
X32850D01*
Y25075D01*
X33275D01*
Y25500D01*
D02*
G37*
G36*
X32750Y26025D02*
X32325D01*
Y25600D01*
X32750D01*
Y26025D01*
D02*
G37*
G36*
X38750Y25949D02*
X38647Y25935D01*
X38551Y25895D01*
X38468Y25832D01*
X38405Y25749D01*
X38365Y25653D01*
X38351Y25550D01*
X38365Y25447D01*
X38405Y25351D01*
X38468Y25268D01*
X38551Y25205D01*
X38647Y25165D01*
X38750Y25151D01*
X38853Y25165D01*
X38949Y25205D01*
X39032Y25268D01*
X39095Y25351D01*
X39135Y25447D01*
X39149Y25550D01*
X39135Y25653D01*
X39095Y25749D01*
X39032Y25832D01*
X38949Y25895D01*
X38853Y25935D01*
X38750Y25949D01*
D02*
G37*
G36*
X35750Y24949D02*
X35647Y24935D01*
X35551Y24895D01*
X35468Y24832D01*
X35405Y24749D01*
X35365Y24653D01*
X35351Y24550D01*
X35365Y24447D01*
X35405Y24351D01*
X35468Y24268D01*
X35551Y24205D01*
X35647Y24165D01*
X35750Y24151D01*
X35853Y24165D01*
X35949Y24205D01*
X36032Y24268D01*
X36095Y24351D01*
X36135Y24447D01*
X36149Y24550D01*
X36135Y24653D01*
X36095Y24749D01*
X36032Y24832D01*
X35949Y24895D01*
X35853Y24935D01*
X35750Y24949D01*
D02*
G37*
G36*
X32800Y25029D02*
X32769Y25025D01*
X32769Y25025D01*
X32676Y25013D01*
X32560Y24965D01*
X32461Y24889D01*
X32385Y24790D01*
X32337Y24674D01*
X32321Y24550D01*
X32337Y24426D01*
X32385Y24310D01*
X32461Y24211D01*
X32560Y24135D01*
X32676Y24087D01*
X32800Y24071D01*
X32924Y24087D01*
X33040Y24135D01*
X33139Y24211D01*
X33215Y24310D01*
X33263Y24426D01*
X33279Y24550D01*
X33263Y24674D01*
X33215Y24790D01*
X33139Y24889D01*
X33040Y24965D01*
X32924Y25013D01*
X32831Y25025D01*
X32831Y25025D01*
X32800Y25029D01*
D02*
G37*
G36*
X32750Y25500D02*
X32325D01*
Y25075D01*
X32750D01*
Y25500D01*
D02*
G37*
G36*
X38750Y24949D02*
X38647Y24935D01*
X38551Y24895D01*
X38468Y24832D01*
X38405Y24749D01*
X38365Y24653D01*
X38351Y24550D01*
X38365Y24447D01*
X38405Y24351D01*
X38468Y24268D01*
X38551Y24205D01*
X38647Y24165D01*
X38750Y24151D01*
X38853Y24165D01*
X38949Y24205D01*
X39032Y24268D01*
X39095Y24351D01*
X39135Y24447D01*
X39149Y24550D01*
X39135Y24653D01*
X39095Y24749D01*
X39032Y24832D01*
X38949Y24895D01*
X38853Y24935D01*
X38750Y24949D01*
D02*
G37*
G36*
X43000Y30500D02*
X42600D01*
Y30100D01*
X43000D01*
Y30500D01*
D02*
G37*
G36*
X32750Y35825D02*
X32325D01*
Y35400D01*
X32750D01*
Y35825D01*
D02*
G37*
G36*
X33275Y35300D02*
X32850D01*
Y34875D01*
X33275D01*
Y35300D01*
D02*
G37*
G36*
X38700Y36349D02*
X38597Y36335D01*
X38501Y36295D01*
X38418Y36232D01*
X38355Y36149D01*
X38315Y36053D01*
X38301Y35950D01*
X38315Y35847D01*
X38355Y35751D01*
X38418Y35668D01*
X38501Y35605D01*
X38597Y35565D01*
X38700Y35551D01*
X38803Y35565D01*
X38899Y35605D01*
X38982Y35668D01*
X39045Y35751D01*
X39085Y35847D01*
X39099Y35950D01*
X39085Y36053D01*
X39045Y36149D01*
X38982Y36232D01*
X38899Y36295D01*
X38803Y36335D01*
X38700Y36349D01*
D02*
G37*
G36*
X33275Y35825D02*
X32850D01*
Y35400D01*
X33275D01*
Y35825D01*
D02*
G37*
G36*
X42200Y35173D02*
X42126Y35163D01*
X42010Y35115D01*
X41911Y35039D01*
X41835Y34940D01*
X41787Y34824D01*
X41777Y34750D01*
X42200D01*
Y35173D01*
D02*
G37*
G36*
X38700Y35349D02*
X38597Y35335D01*
X38501Y35295D01*
X38418Y35232D01*
X38355Y35149D01*
X38315Y35053D01*
X38301Y34950D01*
X38315Y34847D01*
X38355Y34751D01*
X38418Y34668D01*
X38501Y34605D01*
X38597Y34565D01*
X38700Y34551D01*
X38803Y34565D01*
X38899Y34605D01*
X38982Y34668D01*
X39045Y34751D01*
X39085Y34847D01*
X39099Y34950D01*
X39085Y35053D01*
X39045Y35149D01*
X38982Y35232D01*
X38899Y35295D01*
X38803Y35335D01*
X38700Y35349D01*
D02*
G37*
G36*
X32750Y35300D02*
X32325D01*
Y34875D01*
X32750D01*
Y35300D01*
D02*
G37*
G36*
X42300Y35173D02*
Y34750D01*
X42723D01*
X42713Y34824D01*
X42665Y34940D01*
X42589Y35039D01*
X42490Y35115D01*
X42374Y35163D01*
X42300Y35173D01*
D02*
G37*
G36*
X36095Y36345D02*
X35305D01*
Y35555D01*
X36095D01*
Y36345D01*
D02*
G37*
G36*
X38500Y38850D02*
X37600D01*
Y37950D01*
X38500D01*
Y38850D01*
D02*
G37*
G36*
X37050Y38854D02*
X36933Y38838D01*
X36823Y38793D01*
X36729Y38721D01*
X36657Y38627D01*
X36612Y38517D01*
X36596Y38400D01*
X36612Y38283D01*
X36657Y38173D01*
X36729Y38079D01*
X36823Y38007D01*
X36933Y37962D01*
X37050Y37946D01*
X37167Y37962D01*
X37277Y38007D01*
X37371Y38079D01*
X37443Y38173D01*
X37488Y38283D01*
X37504Y38400D01*
X37488Y38517D01*
X37443Y38627D01*
X37371Y38721D01*
X37277Y38793D01*
X37167Y38838D01*
X37050Y38854D01*
D02*
G37*
G36*
X42300Y38373D02*
Y37950D01*
X42723D01*
X42713Y38024D01*
X42665Y38140D01*
X42589Y38239D01*
X42490Y38315D01*
X42374Y38363D01*
X42300Y38373D01*
D02*
G37*
G36*
X42200D02*
X42126Y38363D01*
X42010Y38315D01*
X41911Y38239D01*
X41835Y38140D01*
X41787Y38024D01*
X41777Y37950D01*
X42200D01*
Y38373D01*
D02*
G37*
G36*
Y37850D02*
X41777D01*
X41787Y37776D01*
X41835Y37660D01*
X41911Y37561D01*
X42010Y37485D01*
X42126Y37437D01*
X42200Y37427D01*
Y37850D01*
D02*
G37*
G36*
X42284Y37377D02*
X42216D01*
X42216Y37375D01*
X41775D01*
Y36425D01*
X42725D01*
Y37375D01*
X42284D01*
X42284Y37377D01*
D02*
G37*
G36*
X36050Y38854D02*
X35933Y38838D01*
X35823Y38793D01*
X35729Y38721D01*
X35657Y38627D01*
X35612Y38517D01*
X35596Y38400D01*
X35612Y38283D01*
X35657Y38173D01*
X35729Y38079D01*
X35823Y38007D01*
X35933Y37962D01*
X36050Y37946D01*
X36167Y37962D01*
X36277Y38007D01*
X36371Y38079D01*
X36443Y38173D01*
X36488Y38283D01*
X36504Y38400D01*
X36488Y38517D01*
X36443Y38627D01*
X36371Y38721D01*
X36277Y38793D01*
X36167Y38838D01*
X36050Y38854D01*
D02*
G37*
G36*
X42723Y37850D02*
X42300D01*
Y37427D01*
X42374Y37437D01*
X42490Y37485D01*
X42589Y37561D01*
X42665Y37660D01*
X42713Y37776D01*
X42723Y37850D01*
D02*
G37*
G36*
X35700Y35349D02*
X35597Y35335D01*
X35501Y35295D01*
X35418Y35232D01*
X35355Y35149D01*
X35315Y35053D01*
X35301Y34950D01*
X35315Y34847D01*
X35355Y34751D01*
X35418Y34668D01*
X35501Y34605D01*
X35597Y34565D01*
X35700Y34551D01*
X35803Y34565D01*
X35899Y34605D01*
X35982Y34668D01*
X36045Y34751D01*
X36085Y34847D01*
X36099Y34950D01*
X36085Y35053D01*
X36045Y35149D01*
X35982Y35232D01*
X35899Y35295D01*
X35803Y35335D01*
X35700Y35349D01*
D02*
G37*
G36*
X43250Y32454D02*
X43133Y32438D01*
X43023Y32393D01*
X42929Y32321D01*
X42857Y32227D01*
X42812Y32117D01*
X42796Y32000D01*
X42812Y31883D01*
X42857Y31773D01*
X42929Y31679D01*
X43023Y31607D01*
X43133Y31562D01*
X43250Y31546D01*
X43367Y31562D01*
X43477Y31607D01*
X43571Y31679D01*
X43643Y31773D01*
X43688Y31883D01*
X43704Y32000D01*
X43688Y32117D01*
X43643Y32227D01*
X43571Y32321D01*
X43477Y32393D01*
X43367Y32438D01*
X43250Y32454D01*
D02*
G37*
G36*
X39250D02*
X39133Y32438D01*
X39023Y32393D01*
X38929Y32321D01*
X38857Y32227D01*
X38812Y32117D01*
X38796Y32000D01*
X38812Y31883D01*
X38857Y31773D01*
X38929Y31679D01*
X39023Y31607D01*
X39133Y31562D01*
X39250Y31546D01*
X39367Y31562D01*
X39477Y31607D01*
X39571Y31679D01*
X39643Y31773D01*
X39688Y31883D01*
X39704Y32000D01*
X39688Y32117D01*
X39643Y32227D01*
X39571Y32321D01*
X39477Y32393D01*
X39367Y32438D01*
X39250Y32454D01*
D02*
G37*
G36*
X35650Y32900D02*
X35308D01*
X35315Y32847D01*
X35355Y32751D01*
X35418Y32668D01*
X35501Y32605D01*
X35597Y32565D01*
X35650Y32558D01*
Y32900D01*
D02*
G37*
G36*
X38700Y33349D02*
X38597Y33335D01*
X38501Y33295D01*
X38418Y33232D01*
X38355Y33149D01*
X38315Y33053D01*
X38301Y32950D01*
X38315Y32847D01*
X38355Y32751D01*
X38418Y32668D01*
X38501Y32605D01*
X38597Y32565D01*
X38700Y32551D01*
X38803Y32565D01*
X38899Y32605D01*
X38982Y32668D01*
X39045Y32751D01*
X39085Y32847D01*
X39099Y32950D01*
X39085Y33053D01*
X39045Y33149D01*
X38982Y33232D01*
X38899Y33295D01*
X38803Y33335D01*
X38700Y33349D01*
D02*
G37*
G36*
X33375Y30975D02*
X32950D01*
Y30550D01*
X33375D01*
Y30975D01*
D02*
G37*
G36*
X32850D02*
X32425D01*
Y30550D01*
X32850D01*
Y30975D01*
D02*
G37*
G36*
X43000Y31000D02*
X42600D01*
Y30600D01*
X43000D01*
Y31000D01*
D02*
G37*
G36*
X42500D02*
X42100D01*
Y30600D01*
X42500D01*
Y31000D01*
D02*
G37*
G36*
X36092Y32900D02*
X35750D01*
Y32558D01*
X35803Y32565D01*
X35899Y32605D01*
X35982Y32668D01*
X36045Y32751D01*
X36085Y32847D01*
X36092Y32900D01*
D02*
G37*
G36*
X32800Y34829D02*
X32769Y34825D01*
X32769Y34825D01*
X32676Y34813D01*
X32560Y34765D01*
X32461Y34689D01*
X32385Y34590D01*
X32337Y34474D01*
X32321Y34350D01*
X32337Y34226D01*
X32385Y34110D01*
X32461Y34011D01*
X32560Y33935D01*
X32676Y33887D01*
X32800Y33871D01*
X32924Y33887D01*
X33040Y33935D01*
X33139Y34011D01*
X33215Y34110D01*
X33263Y34226D01*
X33279Y34350D01*
X33263Y34474D01*
X33215Y34590D01*
X33139Y34689D01*
X33040Y34765D01*
X32924Y34813D01*
X32831Y34825D01*
X32831Y34825D01*
X32800Y34829D01*
D02*
G37*
G36*
X38700Y34349D02*
X38597Y34335D01*
X38501Y34295D01*
X38418Y34232D01*
X38355Y34149D01*
X38315Y34053D01*
X38301Y33950D01*
X38315Y33847D01*
X38355Y33751D01*
X38418Y33668D01*
X38501Y33605D01*
X38597Y33565D01*
X38700Y33551D01*
X38803Y33565D01*
X38899Y33605D01*
X38982Y33668D01*
X39045Y33751D01*
X39085Y33847D01*
X39099Y33950D01*
X39085Y34053D01*
X39045Y34149D01*
X38982Y34232D01*
X38899Y34295D01*
X38803Y34335D01*
X38700Y34349D01*
D02*
G37*
G36*
X42723Y34650D02*
X42300D01*
Y34227D01*
X42374Y34237D01*
X42490Y34285D01*
X42589Y34361D01*
X42665Y34460D01*
X42713Y34576D01*
X42723Y34650D01*
D02*
G37*
G36*
X42200D02*
X41777D01*
X41787Y34576D01*
X41835Y34460D01*
X41911Y34361D01*
X42010Y34285D01*
X42126Y34237D01*
X42200Y34227D01*
Y34650D01*
D02*
G37*
G36*
X35750Y33342D02*
Y33000D01*
X36092D01*
X36085Y33053D01*
X36045Y33149D01*
X35982Y33232D01*
X35899Y33295D01*
X35803Y33335D01*
X35750Y33342D01*
D02*
G37*
G36*
X35650D02*
X35597Y33335D01*
X35501Y33295D01*
X35418Y33232D01*
X35355Y33149D01*
X35315Y33053D01*
X35308Y33000D01*
X35650D01*
Y33342D01*
D02*
G37*
G36*
X35700Y34349D02*
X35597Y34335D01*
X35501Y34295D01*
X35418Y34232D01*
X35355Y34149D01*
X35315Y34053D01*
X35301Y33950D01*
X35315Y33847D01*
X35355Y33751D01*
X35418Y33668D01*
X35501Y33605D01*
X35597Y33565D01*
X35700Y33551D01*
X35803Y33565D01*
X35899Y33605D01*
X35982Y33668D01*
X36045Y33751D01*
X36085Y33847D01*
X36099Y33950D01*
X36085Y34053D01*
X36045Y34149D01*
X35982Y34232D01*
X35899Y34295D01*
X35803Y34335D01*
X35700Y34349D01*
D02*
G37*
G36*
X42284Y34177D02*
X42216D01*
X42216Y34175D01*
X41775D01*
Y33225D01*
X42725D01*
Y34175D01*
X42284D01*
X42284Y34177D01*
D02*
G37*
%LPD*%
D10*
X43200Y38950D02*
D03*
X32400Y22900D02*
D03*
X32450Y38700D02*
D03*
D11*
X42050Y27200D02*
D03*
Y26200D02*
D03*
X41550Y30550D02*
D03*
X37200Y29950D02*
D03*
X36200D02*
D03*
X43250Y32000D02*
D03*
X39250D02*
D03*
X37050Y38400D02*
D03*
X36050D02*
D03*
D12*
X42050Y28200D02*
D03*
X42550Y30550D02*
D03*
D13*
X32800Y24550D02*
D03*
X42350Y23650D02*
D03*
X32900Y29500D02*
D03*
X32800Y34350D02*
D03*
X42250Y34700D02*
D03*
Y37900D02*
D03*
D14*
X32800Y25550D02*
D03*
X42350Y22650D02*
D03*
X32900Y30500D02*
D03*
X32800Y35350D02*
D03*
X42250Y33700D02*
D03*
Y36900D02*
D03*
D15*
X38750Y23550D02*
D03*
Y24550D02*
D03*
Y25550D02*
D03*
Y26550D02*
D03*
X35750Y23550D02*
D03*
Y24550D02*
D03*
Y25550D02*
D03*
X38700Y32950D02*
D03*
Y33950D02*
D03*
Y34950D02*
D03*
Y35950D02*
D03*
X35700Y32950D02*
D03*
Y33950D02*
D03*
Y34950D02*
D03*
D16*
X35750Y26550D02*
D03*
X35700Y35950D02*
D03*
D17*
X38200Y29950D02*
D03*
X38050Y38400D02*
D03*
M02*
